<?xml version="1.0" encoding="utf-8" ?>
<svg xmlns="http://www.w3.org/2000/svg" xmlns:xlink="http://www.w3.org/1999/xlink" width="1024" height="1024">
	<path fill="#0058E6" transform="scale(2 2)" d="M416.93 389.3C410.479 389.624 403.863 389.309 397.391 389.304L113.565 389.306C108.068 389.312 102.4 389.594 96.9275 389.162C76.6646 387.561 74.1306 370.389 74.1489 354.686L74.1526 159.201C74.1538 141.872 73.8409 125.039 95.6092 122.245L401.647 122.237C406.405 122.238 411.235 122.072 415.984 122.366C429.157 123.179 437.609 134.434 438.048 146.847C438.523 160.261 438.101 173.838 438.096 187.267L438.097 329.423C438.099 340.992 438.555 352.747 437.966 364.296C437.281 377.751 429.545 385.241 416.93 389.3ZM410.608 132.21L108.974 132.203C85.8302 132.204 84.231 133.588 84.2394 154.677L84.2554 176.304L102.377 176.304L428.201 176.304L428.21 157.618C428.206 143.623 428.749 131.465 410.608 132.21ZM84.2554 186.223L84.2488 347.111C84.2468 360.683 80.9585 379.293 101.019 379.236L404.555 379.215C411.958 379.231 417.665 380.183 423.61 374.862C430.458 367.469 428.204 356.419 428.203 347.154L428.201 186.223L84.2554 186.223Z"/>
	<path fill="#0058E6" transform="scale(2 2)" d="M160.873 163.779Q160.642 163.814 160.41 163.839Q160.179 163.863 159.946 163.875Q159.713 163.888 159.479 163.889Q159.246 163.891 159.013 163.88Q158.78 163.87 158.548 163.849Q158.316 163.827 158.085 163.794Q157.854 163.761 157.625 163.717Q157.396 163.673 157.169 163.617Q156.943 163.562 156.719 163.495Q156.496 163.429 156.276 163.351Q156.056 163.274 155.84 163.186Q155.624 163.098 155.412 162.999Q155.201 162.9 154.995 162.792Q154.789 162.683 154.588 162.564Q154.387 162.445 154.193 162.317Q153.998 162.188 153.81 162.05Q153.622 161.912 153.441 161.765Q153.26 161.618 153.086 161.462Q152.912 161.307 152.746 161.143Q152.581 160.979 152.423 160.807Q152.266 160.635 152.117 160.455Q151.968 160.276 151.828 160.089Q151.688 159.903 151.557 159.709Q151.427 159.516 151.306 159.317Q151.185 159.117 151.074 158.912Q150.962 158.707 150.862 158.497Q150.761 158.286 150.67 158.071Q150.58 157.856 150.5 157.637Q150.42 157.418 150.352 157.195Q150.283 156.972 150.225 156.746Q150.167 156.521 150.12 156.292Q150.073 156.064 150.038 155.833Q150.003 155.602 149.978 155.371Q149.954 155.139 149.942 154.906Q149.929 154.673 149.928 154.44Q149.926 154.206 149.937 153.973Q149.947 153.74 149.968 153.508Q149.99 153.276 150.023 153.045Q150.056 152.814 150.1 152.585Q150.144 152.356 150.2 152.13Q150.255 151.903 150.322 151.68Q150.388 151.456 150.466 151.236Q150.543 151.016 150.631 150.8Q150.719 150.584 150.818 150.373Q150.916 150.161 151.025 149.955Q151.134 149.749 151.253 149.548Q151.372 149.347 151.5 149.153Q151.629 148.958 151.767 148.77Q151.904 148.582 152.051 148.401Q152.198 148.22 152.354 148.046Q152.51 147.873 152.674 147.707Q152.838 147.541 153.01 147.383Q153.182 147.226 153.361 147.077Q153.541 146.928 153.727 146.788Q153.914 146.648 154.107 146.517Q154.3 146.387 154.5 146.266Q154.699 146.145 154.904 146.034Q155.109 145.923 155.319 145.822Q155.53 145.721 155.745 145.631Q155.96 145.54 156.179 145.46Q156.398 145.381 156.621 145.312Q156.844 145.243 157.07 145.185Q157.296 145.127 157.524 145.08Q157.753 145.033 157.983 144.998Q158.214 144.963 158.445 144.938Q158.677 144.914 158.91 144.902Q159.143 144.889 159.376 144.888Q159.61 144.886 159.843 144.897Q160.076 144.907 160.308 144.928Q160.54 144.95 160.771 144.983Q161.002 145.016 161.231 145.06Q161.46 145.104 161.686 145.16Q161.913 145.215 162.136 145.282Q162.36 145.348 162.58 145.426Q162.8 145.503 163.016 145.591Q163.232 145.679 163.443 145.778Q163.655 145.876 163.861 145.985Q164.067 146.094 164.268 146.213Q164.469 146.332 164.663 146.46Q164.858 146.589 165.046 146.727Q165.234 146.865 165.415 147.012Q165.596 147.158 165.77 147.314Q165.943 147.47 166.109 147.634Q166.275 147.798 166.433 147.97Q166.59 148.142 166.739 148.321Q166.888 148.501 167.028 148.687Q167.168 148.874 167.299 149.067Q167.429 149.26 167.55 149.46Q167.671 149.659 167.782 149.864Q167.893 150.069 167.994 150.279Q168.095 150.49 168.185 150.705Q168.276 150.92 168.356 151.139Q168.435 151.358 168.504 151.581Q168.573 151.804 168.631 152.03Q168.689 152.256 168.736 152.484Q168.783 152.712 168.818 152.943Q168.854 153.174 168.878 153.406Q168.902 153.638 168.915 153.87Q168.927 154.103 168.929 154.337Q168.93 154.57 168.92 154.803Q168.909 155.036 168.888 155.268Q168.866 155.5 168.833 155.731Q168.8 155.962 168.756 156.191Q168.712 156.42 168.656 156.647Q168.601 156.873 168.535 157.097Q168.468 157.32 168.391 157.54Q168.313 157.76 168.225 157.976Q168.137 158.192 168.039 158.404Q167.94 158.615 167.831 158.821Q167.722 159.028 167.604 159.228Q167.485 159.429 167.356 159.624Q167.228 159.818 167.09 160.007Q166.952 160.195 166.805 160.376Q166.658 160.557 166.502 160.731Q166.347 160.904 166.183 161.07Q166.019 161.236 165.847 161.393Q165.675 161.551 165.495 161.7Q165.316 161.849 165.129 161.989Q164.943 162.129 164.749 162.259Q164.556 162.39 164.357 162.511Q164.157 162.632 163.952 162.743Q163.747 162.854 163.537 162.955Q163.326 163.056 163.111 163.146Q162.896 163.237 162.677 163.317Q162.458 163.396 162.235 163.465Q162.012 163.534 161.786 163.592Q161.561 163.65 161.332 163.697Q161.104 163.744 160.873 163.779Z"/>
	<path fill="#0058E6" transform="scale(2 2)" d="M203.361 163.562Q203.134 163.61 202.906 163.647Q202.677 163.684 202.447 163.71Q202.217 163.735 201.986 163.75Q201.754 163.764 201.523 163.767Q201.291 163.77 201.06 163.762Q200.828 163.753 200.597 163.734Q200.367 163.714 200.137 163.683Q199.907 163.652 199.68 163.61Q199.452 163.568 199.227 163.514Q199.001 163.461 198.779 163.397Q198.556 163.332 198.337 163.257Q198.118 163.182 197.903 163.096Q197.688 163.011 197.477 162.914Q197.266 162.818 197.06 162.712Q196.855 162.605 196.655 162.489Q196.454 162.372 196.26 162.246Q196.066 162.12 195.878 161.984Q195.69 161.849 195.509 161.704Q195.328 161.56 195.154 161.407Q194.981 161.253 194.815 161.092Q194.649 160.93 194.491 160.761Q194.333 160.591 194.184 160.414Q194.034 160.237 193.894 160.053Q193.753 159.869 193.622 159.678Q193.491 159.487 193.369 159.29Q193.247 159.093 193.135 158.89Q193.023 158.687 192.921 158.479Q192.82 158.271 192.728 158.059Q192.637 157.846 192.556 157.629Q192.475 157.412 192.404 157.191Q192.334 156.97 192.275 156.746Q192.215 156.523 192.167 156.296Q192.119 156.069 192.082 155.841Q192.045 155.612 192.019 155.382Q191.993 155.152 191.978 154.921Q191.964 154.689 191.961 154.458Q191.957 154.226 191.966 153.995Q191.974 153.763 191.993 153.533Q192.013 153.302 192.044 153.072Q192.074 152.843 192.116 152.615Q192.159 152.387 192.212 152.162Q192.265 151.936 192.329 151.714Q192.393 151.491 192.468 151.272Q192.543 151.053 192.629 150.837Q192.714 150.622 192.811 150.411Q192.907 150.201 193.013 149.995Q193.119 149.789 193.236 149.589Q193.352 149.389 193.478 149.194Q193.604 149 193.739 148.812Q193.875 148.624 194.019 148.443Q194.163 148.262 194.317 148.088Q194.47 147.914 194.631 147.748Q194.793 147.582 194.962 147.424Q195.131 147.266 195.308 147.117Q195.485 146.967 195.669 146.826Q195.853 146.686 196.044 146.554Q196.235 146.423 196.432 146.301Q196.629 146.179 196.832 146.067Q197.034 145.955 197.242 145.853Q197.45 145.751 197.663 145.659Q197.876 145.568 198.093 145.486Q198.309 145.405 198.53 145.335Q198.751 145.264 198.975 145.205Q199.199 145.145 199.425 145.097Q199.652 145.048 199.881 145.011Q200.109 144.974 200.34 144.948Q200.57 144.922 200.802 144.907Q201.033 144.892 201.265 144.889Q201.497 144.886 201.728 144.894Q201.96 144.902 202.191 144.921Q202.422 144.941 202.652 144.971Q202.882 145.002 203.11 145.044Q203.338 145.086 203.563 145.139Q203.789 145.192 204.012 145.257Q204.235 145.321 204.454 145.396Q204.674 145.471 204.889 145.556Q205.104 145.642 205.315 145.738Q205.526 145.834 205.732 145.941Q205.938 146.047 206.139 146.164Q206.339 146.28 206.534 146.406Q206.729 146.532 206.917 146.668Q207.105 146.803 207.286 146.948Q207.467 147.092 207.641 147.245Q207.815 147.399 207.982 147.56Q208.148 147.722 208.306 147.892Q208.464 148.061 208.614 148.238Q208.763 148.416 208.904 148.6Q209.044 148.784 209.176 148.975Q209.307 149.166 209.429 149.363Q209.551 149.561 209.663 149.763Q209.776 149.966 209.878 150.175Q209.98 150.383 210.071 150.596Q210.163 150.809 210.244 151.026Q210.325 151.243 210.395 151.464Q210.466 151.685 210.525 151.909Q210.585 152.133 210.633 152.36Q210.681 152.587 210.718 152.816Q210.756 153.044 210.781 153.275Q210.807 153.505 210.822 153.737Q210.836 153.968 210.839 154.2Q210.843 154.432 210.834 154.663Q210.826 154.895 210.807 155.126Q210.787 155.357 210.756 155.587Q210.725 155.817 210.683 156.045Q210.641 156.273 210.587 156.498Q210.534 156.724 210.47 156.947Q210.405 157.17 210.33 157.389Q210.255 157.608 210.169 157.824Q210.083 158.039 209.987 158.25Q209.891 158.461 209.784 158.667Q209.678 158.873 209.561 159.073Q209.444 159.273 209.318 159.468Q209.192 159.662 209.056 159.85Q208.921 160.038 208.776 160.22Q208.631 160.401 208.478 160.575Q208.324 160.748 208.163 160.914Q208.001 161.081 207.831 161.239Q207.661 161.396 207.484 161.546Q207.307 161.695 207.122 161.836Q206.938 161.976 206.747 162.108Q206.556 162.239 206.359 162.361Q206.161 162.483 205.958 162.595Q205.755 162.706 205.547 162.808Q205.339 162.91 205.126 163.002Q204.913 163.093 204.695 163.174Q204.478 163.255 204.257 163.325Q204.036 163.395 203.812 163.455Q203.588 163.514 203.361 163.562Z"/>
	<path fill="#0058E6" transform="scale(2 2)" d="M118.853 163.779Q118.624 163.824 118.393 163.858Q118.162 163.891 117.929 163.914Q117.697 163.936 117.464 163.947Q117.231 163.958 116.997 163.957Q116.764 163.957 116.53 163.945Q116.297 163.933 116.065 163.909Q115.833 163.886 115.602 163.851Q115.371 163.817 115.142 163.771Q114.913 163.725 114.687 163.667Q114.46 163.61 114.237 163.542Q114.014 163.474 113.794 163.395Q113.574 163.316 113.359 163.226Q113.143 163.137 112.932 163.036Q112.721 162.936 112.516 162.826Q112.31 162.716 112.11 162.595Q111.91 162.475 111.716 162.345Q111.522 162.215 111.334 162.076Q111.147 161.937 110.967 161.788Q110.786 161.64 110.613 161.483Q110.44 161.326 110.276 161.161Q110.111 160.996 109.954 160.822Q109.797 160.649 109.649 160.469Q109.501 160.288 109.362 160.101Q109.223 159.913 109.094 159.719Q108.964 159.525 108.844 159.324Q108.724 159.124 108.614 158.918Q108.504 158.712 108.404 158.501Q108.305 158.29 108.215 158.074Q108.126 157.858 108.047 157.639Q107.969 157.419 107.901 157.195Q107.833 156.972 107.776 156.745Q107.72 156.519 107.674 156.29Q107.628 156.061 107.594 155.83Q107.56 155.599 107.537 155.367Q107.514 155.134 107.502 154.901Q107.491 154.668 107.491 154.435Q107.49 154.201 107.502 153.968Q107.513 153.735 107.536 153.502Q107.558 153.27 107.592 153.039Q107.627 152.808 107.672 152.579Q107.717 152.35 107.774 152.123Q107.83 151.897 107.898 151.673Q107.965 151.45 108.044 151.23Q108.122 151.01 108.211 150.794Q108.3 150.578 108.4 150.367Q108.499 150.156 108.609 149.95Q108.719 149.744 108.839 149.544Q108.958 149.343 109.088 149.149Q109.217 148.954 109.356 148.767Q109.495 148.579 109.642 148.398Q109.79 148.217 109.947 148.044Q110.103 147.871 110.268 147.705Q110.433 147.54 110.605 147.383Q110.778 147.226 110.958 147.077Q111.138 146.929 111.325 146.789Q111.513 146.65 111.706 146.519Q111.9 146.389 112.1 146.269Q112.3 146.148 112.506 146.038Q112.711 145.927 112.922 145.827Q113.133 145.726 113.348 145.636Q113.564 145.546 113.783 145.467Q114.003 145.388 114.226 145.319Q114.45 145.251 114.676 145.194Q114.902 145.136 115.131 145.09Q115.361 145.044 115.592 145.008Q115.824 144.973 116.057 144.95Q116.29 144.926 116.524 144.914Q116.758 144.902 116.993 144.901Q117.227 144.901 117.461 144.911Q117.695 144.922 117.928 144.945Q118.162 144.967 118.393 145.001Q118.625 145.035 118.855 145.08Q119.085 145.125 119.313 145.181Q119.54 145.238 119.764 145.305Q119.989 145.373 120.21 145.451Q120.43 145.53 120.647 145.619Q120.864 145.708 121.076 145.808Q121.288 145.908 121.495 146.018Q121.701 146.128 121.903 146.248Q122.104 146.368 122.299 146.498Q122.494 146.628 122.682 146.767Q122.871 146.907 123.052 147.055Q123.233 147.203 123.407 147.36Q123.581 147.518 123.747 147.683Q123.913 147.849 124.07 148.022Q124.228 148.195 124.377 148.376Q124.526 148.557 124.666 148.745Q124.805 148.933 124.936 149.128Q125.066 149.323 125.187 149.524Q125.307 149.725 125.418 149.931Q125.529 150.138 125.629 150.349Q125.729 150.561 125.819 150.778Q125.909 150.994 125.988 151.215Q126.067 151.435 126.135 151.659Q126.203 151.884 126.26 152.111Q126.317 152.338 126.363 152.568Q126.409 152.798 126.443 153.03Q126.478 153.261 126.501 153.495Q126.524 153.728 126.535 153.962Q126.547 154.196 126.547 154.43Q126.547 154.665 126.535 154.899Q126.523 155.133 126.5 155.366Q126.477 155.599 126.443 155.831Q126.408 156.063 126.363 156.292Q126.317 156.522 126.26 156.749Q126.203 156.977 126.135 157.201Q126.066 157.425 125.987 157.646Q125.908 157.866 125.818 158.083Q125.728 158.299 125.628 158.511Q125.528 158.723 125.417 158.929Q125.306 159.136 125.186 159.336Q125.065 159.537 124.935 159.732Q124.804 159.927 124.664 160.115Q124.525 160.303 124.376 160.484Q124.227 160.665 124.069 160.838Q123.911 161.011 123.746 161.177Q123.58 161.342 123.406 161.499Q123.232 161.656 123.05 161.805Q122.869 161.953 122.681 162.092Q122.492 162.232 122.297 162.361Q122.102 162.491 121.901 162.611Q121.7 162.731 121.493 162.841Q121.286 162.952 121.074 163.051Q120.862 163.151 120.645 163.24Q120.428 163.329 120.207 163.408Q119.987 163.486 119.762 163.554Q119.538 163.621 119.31 163.678Q119.083 163.734 118.853 163.779Z"/>
	<path fill="#0058E6" transform="scale(2 2)" d="M293.252 296.763C291.648 293.231 289.532 289.922 287.556 286.59L256.387 233.025L249.226 221.238C246.359 216.528 241.496 210.897 248.28 207.253C252.419 207.145 260.414 211.306 264.457 212.871L324.088 235.885C330.546 238.36 368.155 250.252 369.843 254.148C373.007 261.451 358.066 264.061 353.755 265.579C348.044 267.589 342.413 269.808 336.775 272.011C338.101 278.75 343.127 305.906 340.532 309.034C335.879 314.64 330.716 307.704 327.402 304.475C322.853 300.043 318.404 295.337 313.569 291.223C311.677 294.555 307.121 303.862 304.304 305.818C301.49 307.771 278.425 306.517 273.837 306.517L189.696 306.516C169.284 306.517 173.864 308.577 162.563 290.187L147.177 265.732C145.672 263.347 143.782 260.848 142.74 258.226C142.543 255.788 143.022 253.118 145.661 252.22C148.642 251.206 253.012 251.562 254.707 251.978C258.79 252.981 258.61 257.45 256.901 260.329C252.936 262.931 246.88 261.804 242.366 261.804L156.519 261.797C164.199 273.187 170.852 285.223 178.293 296.763C182.761 296.989 187.307 296.785 191.785 296.774L293.252 296.763ZM261.808 222.624C265.996 230.711 271.34 238.371 275.921 246.253L289.174 269.029C293.401 276.436 297.518 283.997 302.048 291.223C303.942 288.028 308.202 278.935 311.705 278.046C316.057 276.942 326.095 289.192 329.766 292.809C329.255 289.391 328.816 285.947 328.224 282.543C327.755 279.486 325.172 268.134 326.752 265.885C329.063 262.595 346.165 257.6 350.591 256.216C320.802 245.614 291.138 234.438 261.808 222.624Z"/>
	<path fill="#0058E6" transform="scale(2 2)" d="M173.481 230.698C169.937 231.017 148.248 230.957 145.777 230.305C140.825 228.998 141.568 223.098 146.032 220.693C149.9 220.505 171.738 220.308 174.07 221.087C178.776 222.658 177.277 228.994 173.481 230.698Z"/>
	<path fill="#0058E6" transform="scale(2 2)" d="M220.675 230.698C218.562 230.876 192.401 230.921 191.331 230.644C186.12 229.295 187.344 222.563 191.492 220.693C199.462 220.492 210.577 220.136 218.498 220.651C225.141 221.082 227.199 228.614 220.675 230.698Z"/>
	<path fill="#0058E6" transform="scale(2 2)" d="M248.28 352.745C246.339 352.601 243.822 351.793 242.987 349.872C241.61 346.705 239.833 328.16 246.281 325.521C248.415 325.43 250.685 325.832 251.61 328.065C252.939 331.271 254.715 349.948 248.28 352.745Z"/>
	<path fill="#0058E6" transform="scale(2 2)" d="M211.542 352.745C207.674 353.771 203.922 350.555 205.036 346.564C205.855 343.632 216.018 329.345 219.475 327.302C236.94 325.301 214.93 350.266 211.542 352.745Z"/>
</svg>
