<?xml version="1.0" encoding="utf-8" ?>
<svg xmlns="http://www.w3.org/2000/svg" xmlns:xlink="http://www.w3.org/1999/xlink" width="1024" height="1024">
	<path fill="#0058E6" transform="scale(2 2)" d="M214.419 362.833L145.049 362.847C140.572 362.855 136.003 363.077 131.59 362.189C109.666 357.775 106.43 337.922 106.454 319.738L106.458 155.35C106.469 135.645 111.745 118.337 135.143 115.497C140.974 115.055 146.984 115.48 152.835 115.487L366.442 115.488C370.363 115.49 374.423 115.324 378.309 115.886C394.9 118.286 405.705 133.086 405.775 149.366L405.76 315.423C405.763 334.968 405.48 356.062 380.732 361.993C373.99 363.609 358.618 362.827 350.996 362.825L297.559 362.833L298.49 366.814C299.943 373.273 301.142 379.779 302.353 386.287C306.613 386.293 318.874 385.519 322.021 387.394C325.992 389.759 323.809 395.35 319.565 395.928C316.919 396.289 311.201 395.828 308.151 395.826L205.73 395.805C201.97 395.825 193.962 397.076 190.869 394.451C187.757 391.81 189.8 387.25 193.367 386.499C197.004 385.733 205.689 386.27 209.797 386.287C210.106 383.103 210.936 379.94 211.599 376.811L214.419 362.833ZM160.936 124.876L147.6 124.855C118.846 124.843 115.986 133.719 115.991 160.517L116.004 304.49L351.875 304.49L396.253 304.49L396.259 162.08C396.259 156.223 396.711 149.876 395.792 144.095C392.247 121.812 369.108 124.865 352.992 124.868L160.936 124.876ZM261.936 314.203L116.004 314.203C116.075 341.835 117.166 353.35 148.083 353.32L251.125 353.308L361.969 353.318C393.857 353.329 396.319 343.686 396.253 314.203C381.335 313.97 366.375 314.202 351.453 314.203L261.936 314.203ZM226.818 362.833C225.996 362.884 225 362.838 224.265 363.216C222.497 368.424 220.736 380.354 219.528 386.287L286.312 386.287L292.736 386.287C291.43 378.472 288.994 370.7 288.145 362.833L247.255 362.823C240.486 362.822 233.574 362.529 226.818 362.833Z"/>
	<path fill="#0058E6" transform="scale(2 2)" d="M351.875 285.049C339.436 301.98 328.236 281.033 321.097 272.121C308.772 256.735 311.591 259.444 311.584 239.843L311.59 175.181C311.596 163.705 308.614 148.144 324.511 146.799C331.398 146.672 338.305 146.778 345.194 146.78C373.128 146.785 370.046 151.472 370.055 175.721L370.056 236.198C370.047 271.943 370.021 256.425 351.875 285.049ZM324.511 156.497C318.827 157.105 321.231 166.246 321.255 171.709L358.312 171.709L360.558 171.709C360.652 153.738 363.34 156.49 344.97 156.488L324.511 156.497ZM321.255 181.813L321.255 257.787L348.87 257.802C352.639 257.807 356.848 258.249 360.558 257.787C360.743 254.625 360.591 251.431 360.572 248.263L360.558 181.813L321.255 181.813ZM329.265 267.748C338.892 277.861 338.525 286.952 346.206 275.775C348.091 273.097 349.952 270.398 351.875 267.748L329.265 267.748Z"/>
	<path fill="#0058E6" transform="scale(2 2)" d="M231.125 191.296L169.506 191.303C161.406 191.3 155.233 191.465 148.996 185.512C140.997 177.876 140.657 164.689 148.478 156.795C155.827 149.377 165.616 150.873 175.165 150.874L197.301 150.883L245.503 150.88C252.323 150.881 264.351 150.227 270.564 151.527C291.173 155.838 291.294 185.657 271.059 190.656C265.871 191.938 259.782 191.313 254.433 191.312L231.125 191.296ZM162.218 160.482C156.683 161.464 151.207 166.455 152.397 172.54C154.585 183.724 166.211 181.834 174.719 181.825L266.811 181.813C280.134 179.533 279.863 161.541 266.198 160.524C260.531 160.102 254.579 160.477 248.882 160.494L180.268 160.47C174.319 160.469 168.149 160.128 162.218 160.482Z"/>
	<path fill="#0058E6" transform="scale(2 2)" d="M187.578 254.775L172.655 254.799C156.504 254.819 157.231 252.803 157.242 236.472C157.249 226.261 154.68 216.77 167.948 216.357C173.413 216.37 186.108 215.705 190.682 216.723C199.078 218.591 197.238 227.412 197.272 233.809C197.317 242.261 199.718 254.25 187.578 254.775ZM166.68 225.961C166.674 232.443 166.486 238.978 166.68 245.452L187.578 245.452L187.578 225.961L166.68 225.961Z"/>
	<path fill="#0058E6" transform="scale(2 2)" d="M243.28 230.389C237.939 230.577 232.546 230.35 227.2 230.368C222.658 230.383 204.485 232.534 209.932 222.664C210.641 221.378 211.981 220.997 213.29 220.568C223.451 220.412 233.857 220.169 244.012 220.568C248.227 223.695 247.762 228.075 243.28 230.389Z"/>
	<path fill="#0058E6" transform="scale(2 2)" d="M212.021 251.859C207.832 248.765 208.299 243.724 213.29 242.233C217.09 242.113 241.634 241.839 244.087 242.726C249.01 244.506 247.488 250.406 243.28 251.859C232.882 251.971 222.415 252.035 212.021 251.859Z"/>
	<path fill="#0058E6" transform="scale(2 2)" d="M209.797 277.485L176.708 277.504C172.139 277.508 165.532 277.994 161.147 277.321C157.017 276.687 152.835 268.532 165.502 267.748L197.377 267.744C202.274 267.741 208.032 267.27 212.817 267.85C218.068 268.488 221.135 277.701 209.797 277.485Z"/>
	<path fill="#0058E6" transform="scale(2 2)" d="M258.12 347.396Q257.784 347.445 257.445 347.477Q257.107 347.51 256.767 347.525Q256.428 347.541 256.088 347.54Q255.748 347.539 255.408 347.521Q255.069 347.503 254.731 347.469Q254.392 347.434 254.056 347.383Q253.72 347.332 253.387 347.265Q253.054 347.197 252.724 347.113Q252.395 347.03 252.07 346.93Q251.745 346.83 251.425 346.714Q251.106 346.598 250.792 346.467Q250.479 346.336 250.172 346.189Q249.865 346.042 249.566 345.881Q249.267 345.719 248.976 345.543Q248.685 345.367 248.404 345.177Q248.122 344.987 247.85 344.783Q247.578 344.58 247.316 344.363Q247.054 344.146 246.803 343.916Q246.552 343.687 246.313 343.445Q246.074 343.204 245.847 342.951Q245.62 342.698 245.406 342.434Q245.191 342.17 244.99 341.896Q244.789 341.622 244.602 341.338Q244.415 341.054 244.241 340.762Q244.068 340.469 243.91 340.169Q243.751 339.868 243.607 339.56Q243.464 339.252 243.335 338.937Q243.207 338.622 243.095 338.301Q242.982 337.981 242.885 337.655Q242.788 337.329 242.708 336.998Q242.627 336.668 242.563 336.334Q242.499 336.001 242.451 335.664Q242.403 335.327 242.372 334.989Q242.341 334.65 242.326 334.311Q242.312 333.971 242.314 333.631Q242.316 333.291 242.335 332.952Q242.354 332.612 242.39 332.274Q242.426 331.936 242.478 331.6Q242.53 331.264 242.599 330.931Q242.667 330.598 242.752 330.269Q242.837 329.94 242.938 329.616Q243.039 329.291 243.156 328.972Q243.273 328.653 243.406 328.339Q243.538 328.026 243.686 327.72Q243.834 327.414 243.996 327.115Q244.159 326.817 244.336 326.527Q244.513 326.236 244.704 325.955Q244.895 325.674 245.1 325.403Q245.304 325.131 245.522 324.87Q245.74 324.609 245.97 324.359Q246.201 324.109 246.443 323.871Q246.686 323.633 246.939 323.406Q247.193 323.18 247.458 322.967Q247.722 322.753 247.997 322.553Q248.272 322.353 248.556 322.167Q248.841 321.981 249.134 321.808Q249.427 321.636 249.728 321.479Q250.03 321.321 250.338 321.179Q250.647 321.036 250.962 320.909Q251.277 320.782 251.598 320.67Q251.92 320.559 252.246 320.463Q252.572 320.368 252.903 320.288Q253.233 320.209 253.567 320.146Q253.901 320.083 254.238 320.036Q254.573 319.99 254.91 319.96Q255.247 319.93 255.586 319.916Q255.924 319.903 256.262 319.906Q256.601 319.909 256.938 319.929Q257.276 319.949 257.613 319.985Q257.949 320.022 258.284 320.074Q258.618 320.127 258.949 320.196Q259.281 320.265 259.608 320.35Q259.936 320.435 260.259 320.537Q260.582 320.638 260.899 320.754Q261.217 320.871 261.528 321.003Q261.84 321.136 262.145 321.283Q262.449 321.43 262.746 321.592Q263.044 321.754 263.332 321.931Q263.621 322.107 263.901 322.297Q264.181 322.488 264.451 322.692Q264.721 322.895 264.981 323.112Q265.241 323.329 265.49 323.558Q265.739 323.787 265.977 324.029Q266.214 324.27 266.439 324.522Q266.665 324.775 266.877 325.038Q267.09 325.301 267.29 325.575Q267.489 325.848 267.675 326.131Q267.861 326.413 268.033 326.705Q268.205 326.996 268.362 327.296Q268.52 327.596 268.662 327.903Q268.805 328.21 268.932 328.523Q269.06 328.837 269.172 329.156Q269.283 329.475 269.379 329.8Q269.476 330.125 269.556 330.453Q269.636 330.782 269.7 331.115Q269.763 331.447 269.811 331.782Q269.859 332.117 269.89 332.454Q269.921 332.791 269.935 333.129Q269.95 333.467 269.948 333.806Q269.946 334.144 269.927 334.482Q269.909 334.82 269.873 335.157Q269.838 335.493 269.787 335.828Q269.735 336.162 269.667 336.494Q269.6 336.825 269.516 337.153Q269.432 337.481 269.332 337.804Q269.232 338.128 269.116 338.446Q269 338.764 268.869 339.076Q268.738 339.388 268.592 339.693Q268.446 339.998 268.285 340.296Q268.124 340.594 267.948 340.883Q267.773 341.172 267.583 341.453Q267.394 341.733 267.191 342.004Q266.988 342.275 266.773 342.536Q266.557 342.797 266.328 343.046Q266.1 343.296 265.86 343.534Q265.619 343.773 265.368 343.999Q265.116 344.225 264.854 344.439Q264.591 344.652 264.318 344.853Q264.046 345.053 263.764 345.24Q263.482 345.427 263.191 345.6Q262.9 345.773 262.601 345.932Q262.302 346.09 261.995 346.234Q261.689 346.377 261.376 346.506Q261.063 346.634 260.744 346.747Q260.425 346.86 260.1 346.958Q259.776 347.055 259.448 347.136Q259.119 347.217 258.787 347.282Q258.455 347.347 258.12 347.396ZM254.868 329.593Q254.674 329.651 254.487 329.727Q254.3 329.803 254.12 329.896Q253.941 329.99 253.772 330.1Q253.603 330.211 253.445 330.337Q253.287 330.463 253.141 330.604Q252.996 330.744 252.865 330.898Q252.734 331.052 252.619 331.218Q252.503 331.384 252.404 331.56Q252.305 331.736 252.223 331.921Q252.141 332.106 252.078 332.298Q252.014 332.49 251.969 332.687Q251.924 332.884 251.898 333.084Q251.872 333.285 251.866 333.487Q251.859 333.689 251.872 333.891Q251.885 334.092 251.918 334.292Q251.95 334.491 252.001 334.687Q252.052 334.883 252.122 335.072Q252.192 335.262 252.28 335.444Q252.367 335.626 252.472 335.799Q252.577 335.972 252.698 336.134Q252.819 336.297 252.954 336.446Q253.09 336.596 253.24 336.732Q253.39 336.868 253.551 336.989Q253.713 337.11 253.886 337.215Q254.059 337.32 254.241 337.408Q254.423 337.495 254.613 337.565Q254.803 337.635 254.998 337.687Q255.194 337.738 255.393 337.77Q255.593 337.803 255.795 337.816Q255.997 337.829 256.199 337.823Q256.401 337.816 256.601 337.791Q256.802 337.765 256.999 337.72Q257.273 337.658 257.537 337.559Q257.8 337.461 258.048 337.328Q258.296 337.196 258.524 337.031Q258.752 336.867 258.956 336.674Q259.161 336.48 259.337 336.261Q259.514 336.043 259.66 335.802Q259.806 335.562 259.918 335.304Q260.031 335.046 260.108 334.776Q260.185 334.506 260.226 334.227Q260.266 333.949 260.269 333.668Q260.272 333.386 260.238 333.107Q260.204 332.828 260.132 332.556Q260.061 332.284 259.954 332.024Q259.847 331.763 259.706 331.52Q259.566 331.276 259.394 331.053Q259.222 330.831 259.022 330.633Q258.822 330.435 258.597 330.266Q258.373 330.097 258.128 329.959Q257.883 329.821 257.622 329.717Q257.36 329.613 257.087 329.544Q256.815 329.476 256.535 329.445Q256.256 329.413 255.974 329.419Q255.693 329.426 255.415 329.469Q255.138 329.513 254.868 329.593Z"/>
</svg>
