<?xml version="1.0" encoding="utf-8" ?>
<svg xmlns="http://www.w3.org/2000/svg" xmlns:xlink="http://www.w3.org/1999/xlink" width="1024" height="1024">
	<path fill="#0058E6" transform="scale(2 2)" d="M111.874 316.625L111.865 343.717C111.864 349.379 111.321 355.715 112.492 361.252C116.127 378.441 137.412 374.819 150.388 374.805L375.517 374.845C412.367 375.037 394.979 350.6 401.501 340.773C402.83 338.77 405.796 338.479 407.68 339.913C410.589 342.128 409.631 348.315 409.612 351.44C409.434 380.25 395.372 384.351 368.814 384.327L144.942 384.338C117.415 384.378 102.553 382.588 102.625 350.232L102.638 164.26C102.586 147.121 103.673 130.141 126.141 127.497L374.247 127.482C390.781 127.472 407.233 131.654 409.339 151.858C410.086 159.027 409.573 167.827 409.573 175.138L409.539 314.487C409.537 317.421 410.729 323.425 408.619 325.826C406.968 327.706 403.694 327.801 401.896 326.085C399.122 323.439 400.319 310.75 400.325 307.073L400.335 200.699L111.874 200.699L111.874 316.625ZM128.946 136.825C110.489 138.238 111.831 152.388 111.86 166.445L111.874 191.364L382.875 191.364C388.691 191.365 394.521 191.455 400.335 191.364L400.347 169.029C400.347 146.367 401.321 136.787 373.403 136.807L128.946 136.825Z"/>
	<path fill="#0058E6" transform="scale(2 2)" d="M145.873 173.499Q145.66 173.537 145.446 173.564Q145.232 173.592 145.016 173.609Q144.801 173.626 144.585 173.632Q144.369 173.639 144.153 173.634Q143.937 173.63 143.722 173.615Q143.506 173.6 143.292 173.575Q143.077 173.55 142.864 173.514Q142.651 173.478 142.44 173.432Q142.229 173.385 142.021 173.329Q141.812 173.272 141.607 173.205Q141.401 173.138 141.199 173.062Q140.997 172.985 140.799 172.898Q140.601 172.812 140.408 172.716Q140.215 172.619 140.026 172.514Q139.838 172.408 139.655 172.293Q139.471 172.179 139.294 172.055Q139.117 171.932 138.946 171.8Q138.775 171.668 138.611 171.527Q138.447 171.387 138.289 171.239Q138.132 171.09 137.983 170.935Q137.833 170.779 137.691 170.616Q137.549 170.453 137.415 170.283Q137.282 170.114 137.156 169.938Q137.031 169.762 136.915 169.58Q136.798 169.398 136.691 169.21Q136.584 169.023 136.486 168.83Q136.388 168.638 136.299 168.441Q136.211 168.244 136.132 168.042Q136.053 167.841 135.984 167.636Q135.916 167.432 135.857 167.224Q135.799 167.016 135.75 166.805Q135.702 166.595 135.664 166.382Q135.626 166.169 135.599 165.955Q135.571 165.741 135.554 165.525Q135.537 165.31 135.531 165.094Q135.525 164.878 135.529 164.662Q135.534 164.446 135.548 164.231Q135.563 164.015 135.589 163.8Q135.614 163.586 135.65 163.373Q135.686 163.16 135.733 162.949Q135.779 162.738 135.836 162.529Q135.892 162.321 135.959 162.115Q136.026 161.91 136.103 161.708Q136.18 161.506 136.266 161.308Q136.353 161.11 136.449 160.917Q136.546 160.724 136.651 160.535Q136.757 160.347 136.872 160.164Q136.986 159.981 137.11 159.803Q137.234 159.626 137.366 159.455Q137.498 159.284 137.638 159.12Q137.779 158.956 137.927 158.799Q138.075 158.642 138.231 158.492Q138.387 158.342 138.55 158.2Q138.713 158.059 138.883 157.925Q139.052 157.791 139.228 157.666Q139.405 157.541 139.587 157.425Q139.769 157.308 139.956 157.201Q140.144 157.094 140.336 156.996Q140.529 156.898 140.726 156.809Q140.923 156.721 141.124 156.642Q141.325 156.564 141.53 156.495Q141.735 156.426 141.943 156.368Q142.151 156.309 142.362 156.261Q142.572 156.213 142.785 156.175Q142.998 156.137 143.212 156.11Q143.426 156.083 143.641 156.066Q143.857 156.049 144.073 156.043Q144.288 156.036 144.504 156.041Q144.72 156.045 144.936 156.06Q145.151 156.075 145.365 156.101Q145.58 156.126 145.793 156.162Q146.006 156.198 146.217 156.245Q146.428 156.291 146.636 156.348Q146.844 156.404 147.05 156.471Q147.255 156.538 147.457 156.615Q147.659 156.692 147.856 156.778Q148.054 156.865 148.248 156.961Q148.441 157.058 148.629 157.163Q148.818 157.269 149 157.384Q149.183 157.498 149.361 157.622Q149.538 157.745 149.708 157.878Q149.879 158.01 150.043 158.15Q150.208 158.29 150.365 158.439Q150.522 158.587 150.671 158.743Q150.821 158.898 150.963 159.061Q151.104 159.224 151.238 159.394Q151.372 159.563 151.497 159.739Q151.622 159.915 151.738 160.097Q151.855 160.279 151.962 160.467Q152.069 160.654 152.167 160.847Q152.265 161.039 152.354 161.236Q152.442 161.433 152.521 161.634Q152.599 161.835 152.668 162.04Q152.737 162.245 152.795 162.453Q152.854 162.66 152.902 162.871Q152.95 163.081 152.988 163.294Q153.026 163.507 153.053 163.721Q153.081 163.935 153.098 164.15Q153.114 164.366 153.121 164.581Q153.127 164.797 153.123 165.013Q153.118 165.229 153.103 165.444Q153.089 165.66 153.063 165.874Q153.038 166.089 153.002 166.302Q152.966 166.515 152.919 166.725Q152.873 166.936 152.816 167.145Q152.76 167.353 152.693 167.558Q152.626 167.764 152.55 167.966Q152.473 168.167 152.386 168.365Q152.3 168.563 152.203 168.756Q152.107 168.95 152.002 169.138Q151.896 169.327 151.781 169.509Q151.667 169.692 151.543 169.87Q151.42 170.047 151.288 170.218Q151.156 170.388 151.016 170.553Q150.875 170.717 150.727 170.874Q150.579 171.031 150.423 171.181Q150.268 171.33 150.105 171.472Q149.942 171.614 149.772 171.748Q149.603 171.881 149.427 172.006Q149.251 172.132 149.069 172.248Q148.887 172.364 148.7 172.472Q148.512 172.579 148.32 172.677Q148.128 172.775 147.931 172.864Q147.734 172.952 147.533 173.031Q147.332 173.11 147.127 173.178Q146.922 173.247 146.714 173.306Q146.506 173.364 146.296 173.413Q146.086 173.461 145.873 173.499Z"/>
	<path fill="#0058E6" transform="scale(2 2)" d="M213.11 173.608Q212.897 173.633 212.682 173.647Q212.468 173.661 212.253 173.665Q212.038 173.669 211.824 173.662Q211.609 173.655 211.395 173.638Q211.181 173.62 210.968 173.592Q210.755 173.564 210.544 173.526Q210.332 173.488 210.123 173.439Q209.914 173.39 209.707 173.331Q209.501 173.272 209.297 173.203Q209.094 173.134 208.894 173.055Q208.694 172.977 208.499 172.888Q208.303 172.799 208.112 172.701Q207.921 172.603 207.735 172.495Q207.549 172.388 207.369 172.272Q207.188 172.155 207.014 172.03Q206.839 171.905 206.671 171.771Q206.503 171.638 206.341 171.496Q206.18 171.354 206.026 171.205Q205.871 171.055 205.725 170.898Q205.578 170.741 205.439 170.577Q205.3 170.414 205.17 170.243Q205.039 170.072 204.917 169.896Q204.795 169.719 204.682 169.536Q204.569 169.354 204.465 169.166Q204.361 168.978 204.266 168.785Q204.171 168.593 204.086 168.395Q204.001 168.198 203.926 167.997Q203.85 167.796 203.785 167.591Q203.72 167.387 203.664 167.179Q203.609 166.971 203.564 166.761Q203.519 166.551 203.485 166.339Q203.45 166.127 203.426 165.914Q203.402 165.701 203.388 165.486Q203.375 165.272 203.372 165.057Q203.369 164.842 203.376 164.628Q203.384 164.413 203.402 164.199Q203.42 163.985 203.448 163.772Q203.477 163.559 203.516 163.348Q203.555 163.137 203.604 162.928Q203.654 162.719 203.713 162.512Q203.773 162.306 203.842 162.103Q203.912 161.9 203.992 161.7Q204.071 161.501 204.16 161.305Q204.25 161.11 204.348 160.919Q204.447 160.728 204.555 160.543Q204.663 160.357 204.78 160.177Q204.897 159.997 205.023 159.823Q205.149 159.648 205.283 159.481Q205.417 159.313 205.559 159.152Q205.701 158.991 205.851 158.837Q206.001 158.684 206.159 158.537Q206.316 158.391 206.48 158.253Q206.645 158.114 206.816 157.984Q206.987 157.854 207.164 157.733Q207.341 157.611 207.524 157.499Q207.707 157.386 207.895 157.283Q208.083 157.179 208.276 157.085Q208.469 156.991 208.667 156.906Q208.864 156.822 209.065 156.747Q209.267 156.672 209.472 156.608Q209.676 156.543 209.884 156.488Q210.092 156.434 210.302 156.39Q210.512 156.345 210.724 156.311Q210.936 156.277 211.15 156.254Q211.363 156.231 211.576 156.218Q211.79 156.205 212.004 156.202Q212.217 156.2 212.431 156.208Q212.645 156.216 212.858 156.235Q213.071 156.253 213.283 156.282Q213.495 156.311 213.705 156.35Q213.916 156.39 214.124 156.439Q214.332 156.489 214.537 156.548Q214.743 156.608 214.945 156.678Q215.147 156.747 215.346 156.827Q215.545 156.906 215.739 156.995Q215.934 157.084 216.123 157.183Q216.313 157.281 216.498 157.389Q216.683 157.497 216.862 157.613Q217.042 157.73 217.215 157.855Q217.389 157.981 217.556 158.114Q217.723 158.248 217.883 158.389Q218.043 158.531 218.197 158.68Q218.35 158.83 218.495 158.986Q218.641 159.143 218.779 159.307Q218.917 159.47 219.047 159.64Q219.176 159.81 219.297 159.987Q219.419 160.163 219.531 160.345Q219.644 160.527 219.747 160.714Q219.85 160.901 219.944 161.094Q220.038 161.286 220.123 161.482Q220.208 161.679 220.282 161.879Q220.357 162.08 220.422 162.283Q220.487 162.487 220.542 162.694Q220.597 162.901 220.642 163.11Q220.686 163.319 220.721 163.53Q220.755 163.741 220.779 163.954Q220.803 164.167 220.817 164.38Q220.83 164.594 220.833 164.807Q220.836 165.021 220.829 165.235Q220.822 165.449 220.804 165.662Q220.786 165.875 220.758 166.087Q220.73 166.299 220.691 166.51Q220.652 166.72 220.603 166.929Q220.555 167.137 220.496 167.342Q220.437 167.548 220.368 167.751Q220.299 167.953 220.22 168.152Q220.141 168.351 220.053 168.546Q219.964 168.74 219.866 168.931Q219.768 169.121 219.661 169.306Q219.554 169.491 219.438 169.671Q219.322 169.851 219.197 170.024Q219.073 170.198 218.939 170.366Q218.806 170.533 218.665 170.694Q218.524 170.855 218.375 171.009Q218.227 171.162 218.07 171.308Q217.914 171.455 217.751 171.593Q217.588 171.731 217.418 171.862Q217.249 171.992 217.073 172.114Q216.897 172.235 216.715 172.348Q216.534 172.462 216.347 172.565Q216.16 172.669 215.968 172.764Q215.776 172.859 215.58 172.944Q215.383 173.029 215.183 173.105Q214.983 173.18 214.78 173.246Q214.576 173.311 214.369 173.367Q214.163 173.422 213.954 173.468Q213.745 173.513 213.534 173.548Q213.322 173.583 213.11 173.608Z"/>
	<path fill="#0058E6" transform="scale(2 2)" d="M179.532 173.251Q179.327 173.302 179.119 173.343Q178.912 173.384 178.702 173.414Q178.493 173.445 178.282 173.465Q178.072 173.486 177.861 173.496Q177.649 173.506 177.438 173.506Q177.226 173.506 177.015 173.496Q176.804 173.485 176.593 173.465Q176.383 173.444 176.173 173.413Q175.964 173.382 175.757 173.341Q175.549 173.3 175.344 173.249Q175.138 173.198 174.936 173.137Q174.733 173.076 174.534 173.005Q174.335 172.935 174.139 172.854Q173.943 172.774 173.752 172.684Q173.56 172.594 173.373 172.495Q173.186 172.396 173.004 172.288Q172.822 172.18 172.646 172.064Q172.47 171.947 172.299 171.822Q172.129 171.697 171.964 171.563Q171.8 171.43 171.642 171.289Q171.485 171.148 171.334 170.999Q171.184 170.851 171.041 170.695Q170.897 170.539 170.762 170.377Q170.627 170.214 170.499 170.045Q170.372 169.876 170.253 169.701Q170.134 169.526 170.024 169.346Q169.914 169.165 169.812 168.98Q169.711 168.794 169.618 168.604Q169.526 168.413 169.443 168.219Q169.36 168.024 169.287 167.826Q169.214 167.627 169.15 167.425Q169.087 167.224 169.033 167.019Q168.979 166.814 168.936 166.607Q168.892 166.4 168.858 166.191Q168.825 165.983 168.802 165.772Q168.778 165.562 168.765 165.351Q168.752 165.14 168.749 164.928Q168.746 164.717 168.754 164.505Q168.761 164.294 168.779 164.083Q168.797 163.872 168.825 163.663Q168.853 163.453 168.891 163.245Q168.929 163.037 168.977 162.831Q169.026 162.625 169.084 162.421Q169.142 162.218 169.21 162.018Q169.278 161.817 169.356 161.621Q169.433 161.424 169.521 161.231Q169.608 161.038 169.704 160.85Q169.801 160.662 169.906 160.478Q170.012 160.295 170.126 160.117Q170.24 159.939 170.363 159.767Q170.486 159.594 170.617 159.428Q170.748 159.262 170.887 159.103Q171.026 158.943 171.172 158.791Q171.319 158.638 171.473 158.493Q171.626 158.347 171.787 158.21Q171.948 158.072 172.115 157.943Q172.282 157.813 172.456 157.692Q172.629 157.57 172.808 157.458Q172.987 157.345 173.171 157.241Q173.355 157.137 173.544 157.042Q173.734 156.947 173.927 156.862Q174.121 156.776 174.318 156.7Q174.515 156.624 174.716 156.558Q174.917 156.491 175.121 156.435Q175.398 156.358 175.679 156.3Q175.96 156.242 176.244 156.202Q176.529 156.163 176.815 156.142Q177.101 156.121 177.388 156.12Q177.675 156.118 177.962 156.135Q178.248 156.152 178.533 156.188Q178.818 156.224 179.1 156.279Q179.382 156.334 179.659 156.407Q179.937 156.48 180.209 156.572Q180.481 156.663 180.747 156.772Q181.012 156.881 181.27 157.008Q181.528 157.134 181.776 157.277Q182.025 157.42 182.264 157.58Q182.503 157.739 182.731 157.914Q182.959 158.088 183.174 158.278Q183.39 158.467 183.593 158.67Q183.796 158.873 183.985 159.089Q184.174 159.305 184.348 159.533Q184.522 159.761 184.681 160Q184.84 160.24 184.983 160.489Q185.126 160.738 185.252 160.996Q185.378 161.253 185.487 161.519Q185.595 161.785 185.686 162.057Q185.777 162.329 185.85 162.607Q185.923 162.885 185.977 163.167Q186.032 163.448 186.067 163.733Q186.103 164.018 186.12 164.305Q186.137 164.591 186.134 164.878Q186.132 165.165 186.111 165.452Q186.09 165.738 186.05 166.022Q186.01 166.306 185.952 166.587Q185.893 166.868 185.816 167.145Q185.739 167.422 185.644 167.692Q185.549 167.963 185.436 168.227Q185.323 168.491 185.193 168.747Q185.063 169.003 184.917 169.25Q184.77 169.497 184.608 169.734Q184.445 169.97 184.268 170.196Q184.09 170.421 183.898 170.634Q183.705 170.848 183.5 171.048Q183.294 171.248 183.075 171.434Q182.856 171.62 182.626 171.791Q182.396 171.962 182.154 172.118Q181.913 172.273 181.662 172.413Q181.411 172.552 181.152 172.675Q180.892 172.797 180.625 172.902Q180.358 173.007 180.084 173.095Q179.811 173.182 179.532 173.251Z"/>
	<path fill="#0058E6" transform="scale(2 2)" d="M349.375 169.843L328.353 169.86C324.883 169.863 320.923 170.225 317.511 169.647C312.657 168.825 312.354 161.634 317.358 160.635C320.283 160.051 323.7 160.358 326.695 160.357L343.127 160.364L363.784 160.363C367.334 160.355 378.648 158.745 378.92 164.45C379.258 171.523 370.618 169.862 366.047 169.862L349.375 169.843Z"/>
	<path fill="#0058E6" transform="scale(2 2)" d="M187.46 245.958C186.995 237.142 191.805 230.839 200.692 229.824C209.719 229.284 218.909 229.815 227.954 229.819L310.672 229.807C324.893 229.805 338.022 228.387 338.219 247.347C338.416 266.287 338.238 285.249 338.234 304.191L338.229 320.202C338.227 323.439 338.497 327.067 337.869 330.237C334.847 345.504 315.024 341.774 303.875 341.746L212.175 341.765C187.893 341.798 186.334 336.742 186.335 313.753L186.349 292.476C156.497 285.325 161.48 249.239 187.46 245.958ZM200.692 239.258C197.092 240.91 196.596 243.148 196.54 246.828C220.206 256.581 217.91 283.803 195.561 292.476L195.55 315.367C195.552 332.036 194.582 332.453 213.279 332.371L214.111 332.367C235.961 312.37 259.565 290.196 278.025 267.413C279.772 270.11 281.84 272.638 283.892 275.108C298.428 292.602 313.966 301.996 328.839 316.625L328.843 254.345C328.841 247.441 330.735 239.13 321.136 239.165L214.177 239.253C209.725 239.242 205.132 238.988 200.692 239.258ZM187.374 255.39Q187.033 255.444 186.696 255.515Q186.358 255.586 186.025 255.674Q185.691 255.761 185.362 255.865Q185.033 255.968 184.71 256.088Q184.387 256.208 184.069 256.343Q183.752 256.478 183.442 256.629Q183.132 256.78 182.829 256.945Q182.527 257.111 182.233 257.291Q181.939 257.472 181.654 257.666Q181.369 257.861 181.094 258.069Q180.819 258.277 180.555 258.498Q180.291 258.72 180.037 258.954Q179.784 259.188 179.543 259.434Q179.301 259.68 179.072 259.938Q178.843 260.196 178.627 260.464Q178.41 260.733 178.208 261.012Q178.005 261.291 177.816 261.579Q177.627 261.868 177.452 262.165Q177.278 262.463 177.118 262.768Q176.958 263.074 176.814 263.387Q176.669 263.7 176.54 264.02Q176.411 264.34 176.298 264.665Q176.184 264.991 176.087 265.322Q175.99 265.653 175.909 265.988Q175.828 266.323 175.764 266.662Q175.699 267.001 175.651 267.343Q175.604 267.684 175.573 268.028Q175.542 268.371 175.528 268.716Q175.514 269.06 175.516 269.405Q175.519 269.75 175.539 270.094Q175.559 270.438 175.595 270.781Q175.632 271.124 175.685 271.465Q175.738 271.806 175.808 272.143Q175.878 272.481 175.964 272.815Q176.051 273.149 176.153 273.478Q176.256 273.807 176.374 274.131Q176.493 274.455 176.627 274.773Q176.762 275.09 176.911 275.401Q177.061 275.712 177.226 276.015Q177.39 276.317 177.57 276.612Q177.749 276.907 177.943 277.192Q178.136 277.477 178.344 277.753Q178.551 278.029 178.771 278.294Q178.992 278.559 179.225 278.813Q179.459 279.067 179.704 279.309Q179.949 279.551 180.206 279.781Q180.463 280.011 180.731 280.228Q180.999 280.445 181.278 280.649Q181.556 280.853 181.844 281.042Q182.132 281.232 182.428 281.408Q182.725 281.583 183.03 281.744Q183.336 281.905 183.648 282.05Q183.961 282.196 184.28 282.326Q184.599 282.456 184.925 282.571Q185.25 282.685 185.581 282.783Q185.911 282.882 186.246 282.964Q186.581 283.046 186.92 283.111Q187.258 283.176 187.6 283.225Q187.941 283.274 188.284 283.306Q188.628 283.338 188.972 283.353Q189.317 283.369 189.662 283.367Q190.006 283.365 190.351 283.347Q190.695 283.328 191.038 283.293Q191.381 283.257 191.722 283.205Q192.064 283.153 192.404 283.083Q192.743 283.014 193.078 282.928Q193.414 282.843 193.745 282.741Q194.075 282.638 194.401 282.52Q194.726 282.402 195.045 282.268Q195.365 282.134 195.677 281.984Q195.989 281.834 196.293 281.669Q196.598 281.504 196.894 281.325Q197.19 281.145 197.477 280.951Q197.764 280.757 198.041 280.549Q198.317 280.342 198.584 280.12Q198.85 279.899 199.105 279.665Q199.361 279.431 199.604 279.185Q199.847 278.939 200.078 278.681Q200.309 278.423 200.527 278.154Q200.745 277.885 200.95 277.605Q201.154 277.326 201.345 277.037Q201.535 276.748 201.711 276.45Q201.888 276.152 202.049 275.845Q202.21 275.539 202.356 275.225Q202.502 274.911 202.632 274.59Q202.763 274.269 202.877 273.943Q202.991 273.616 203.09 273.284Q203.188 272.952 203.27 272.615Q203.351 272.279 203.417 271.939Q203.482 271.599 203.53 271.256Q203.578 270.913 203.61 270.568Q203.641 270.223 203.656 269.878Q203.67 269.532 203.667 269.185Q203.665 268.839 203.645 268.493Q203.626 268.148 203.589 267.803Q203.552 267.459 203.499 267.117Q203.446 266.775 203.375 266.436Q203.305 266.097 203.218 265.762Q203.132 265.426 203.028 265.096Q202.925 264.765 202.806 264.44Q202.687 264.115 202.551 263.797Q202.416 263.478 202.266 263.166Q202.115 262.854 201.949 262.55Q201.783 262.246 201.603 261.951Q201.422 261.655 201.227 261.369Q201.033 261.083 200.824 260.807Q200.615 260.53 200.393 260.265Q200.171 259.999 199.936 259.744Q199.701 259.49 199.454 259.247Q199.207 259.005 198.949 258.775Q198.69 258.544 198.42 258.327Q198.151 258.11 197.871 257.906Q197.591 257.703 197.301 257.513Q197.011 257.323 196.713 257.148Q196.414 256.973 196.107 256.813Q195.8 256.653 195.486 256.508Q195.171 256.363 194.85 256.233Q194.529 256.104 194.202 255.991Q193.875 255.877 193.542 255.78Q193.21 255.683 192.873 255.602Q192.536 255.521 192.196 255.457Q191.856 255.393 191.513 255.346Q191.17 255.299 190.825 255.268Q190.48 255.238 190.134 255.225Q189.788 255.211 189.442 255.215Q189.096 255.219 188.75 255.239Q188.404 255.26 188.06 255.298Q187.716 255.335 187.374 255.39ZM278.025 283.199C274.531 285.961 271.612 289.433 268.602 292.702C255.683 306.736 241.3 319.262 227.467 332.367C233.2 332.106 239.033 332.363 244.78 332.365L279.438 332.367L308.983 332.373C315.783 332.372 325.921 334.858 328.839 327.959C311.107 313.697 294.459 301.188 279.088 284.131C278.843 283.859 278.4 283.272 278.025 283.199Z"/>
</svg>
