<?xml version="1.0" encoding="utf-8" ?>
<svg xmlns="http://www.w3.org/2000/svg" xmlns:xlink="http://www.w3.org/1999/xlink" width="1024" height="1024">
	<path fill="#0058E6" transform="scale(2 2)" d="M385.819 358.621C385.979 383.263 382.139 392.379 355.178 392.406L113.407 392.413C98.1333 392.439 76.9077 394.358 73.8297 373.103C73.2348 368.995 73.4622 364.711 73.4632 360.569L73.4716 155.778C73.4724 140.36 71.5108 122.204 92.3865 119.244C98.936 118.778 105.694 119.231 112.266 119.235L354.594 119.233C368.595 119.229 381.919 119.823 385.907 137.268C387.137 142.645 386.512 152.229 386.513 158L386.506 196.334L400.968 196.324C422.522 196.318 438.243 204.888 438.764 228.46C439.038 240.809 438.771 253.218 438.785 265.573C438.802 281.724 441.672 297.089 429.503 309.69C416.996 322.64 402.06 319.704 385.819 319.93L385.819 358.621ZM273.346 128.995L111.046 128.998C81.6308 128.974 83.0143 128.714 83.0385 155.33L83.0258 189.391L186.875 189.391L376.678 189.391L376.696 156.457C376.702 133.549 377.642 128.913 354.548 128.972L273.346 128.995ZM93.7182 199.055L83.0258 199.055L83.03 351.867C83.0056 384.565 84.4873 382.735 113.242 382.729L271.806 382.734L271.811 261.121C271.811 253.657 268.731 241.231 278.472 241.164C283.355 241.131 288.239 241.262 293.125 241.222C297.283 241.187 308.646 239.156 308.275 246.011C307.948 252.048 299.63 250.683 295.63 250.676L281.477 250.659L281.477 316.375L281.477 382.734L355.253 382.74C378.105 382.733 376.287 376.156 376.285 354.104L376.278 319.93L359.542 319.944C347.207 319.943 337.37 319.729 328.055 310.34C315.479 297.663 317.726 283.163 317.722 266.737L317.738 229.443C317.84 217.038 324.53 204.145 336.245 199.055L93.7182 199.055ZM350.243 205.868C331.777 206.817 327.763 219.876 327.765 234.997L327.764 272.64C327.782 307.795 335.323 309.911 367.886 309.903L407.062 309.894C426.952 307.433 428.906 293.276 428.918 276.575L428.919 237.609C428.915 233.301 429.126 228.844 428.555 224.57C425.505 201.742 400.387 205.856 384.085 205.867C372.835 205.874 361.479 205.511 350.243 205.868Z"/>
	<path fill="#0058E6" transform="scale(2 2)" d="M117.715 176.977Q117.279 177.029 116.84 177.06Q116.402 177.091 115.963 177.1Q115.524 177.109 115.085 177.096Q114.645 177.084 114.207 177.05Q113.769 177.016 113.333 176.961Q112.898 176.905 112.465 176.828Q112.032 176.752 111.604 176.654Q111.176 176.556 110.753 176.437Q110.33 176.318 109.913 176.179Q109.497 176.039 109.087 175.88Q108.678 175.72 108.277 175.54Q107.876 175.361 107.484 175.162Q107.093 174.963 106.711 174.745Q106.33 174.527 105.96 174.29Q105.589 174.054 105.231 173.799Q104.873 173.545 104.528 173.273Q104.182 173.002 103.851 172.713Q103.519 172.425 103.202 172.121Q102.885 171.817 102.584 171.497Q102.282 171.178 101.996 170.844Q101.711 170.51 101.442 170.163Q101.173 169.815 100.921 169.455Q100.67 169.095 100.436 168.723Q100.203 168.351 99.9875 167.967Q99.7725 167.584 99.5765 167.191Q99.3806 166.798 99.2042 166.396Q99.0278 165.993 98.8713 165.583Q98.7149 165.172 98.5788 164.754Q98.4426 164.337 98.3272 163.913Q98.2117 163.489 98.1172 163.06Q98.0227 162.631 97.9494 162.197Q97.8761 161.764 97.8241 161.328Q97.7721 160.892 97.7416 160.453Q97.7112 160.015 97.7022 159.576Q97.6933 159.137 97.7059 158.697Q97.7185 158.258 97.7527 157.82Q97.7869 157.382 97.8425 156.946Q97.8981 156.511 97.9751 156.078Q98.052 155.646 98.1501 155.217Q98.2482 154.789 98.3671 154.366Q98.4861 153.943 98.6257 153.527Q98.7653 153.11 98.9252 152.701Q99.0851 152.292 99.2649 151.891Q99.4446 151.49 99.6439 151.098Q99.8431 150.707 100.061 150.325Q100.28 149.944 100.516 149.574Q100.753 149.204 101.007 148.845Q101.262 148.487 101.534 148.142Q101.806 147.797 102.094 147.466Q102.382 147.134 102.687 146.817Q102.991 146.5 103.311 146.199Q103.63 145.897 103.964 145.612Q104.298 145.326 104.646 145.058Q104.993 144.789 105.353 144.537Q105.714 144.286 106.086 144.053Q106.458 143.819 106.842 143.604Q107.225 143.39 107.618 143.194Q108.011 142.998 108.414 142.822Q108.816 142.646 109.227 142.489Q109.638 142.333 110.055 142.197Q110.473 142.061 110.897 141.946Q111.321 141.831 111.75 141.736Q112.179 141.642 112.612 141.569Q113.046 141.496 113.482 141.444Q113.918 141.392 114.356 141.362Q114.794 141.332 115.233 141.323Q115.672 141.314 116.111 141.327Q116.55 141.34 116.988 141.374Q117.426 141.408 117.861 141.464Q118.297 141.52 118.729 141.597Q119.161 141.674 119.589 141.772Q120.017 141.87 120.44 141.989Q120.863 142.108 121.279 142.247Q121.696 142.387 122.104 142.547Q122.514 142.707 122.914 142.886Q123.315 143.066 123.706 143.265Q124.098 143.464 124.479 143.683Q124.86 143.901 125.23 144.137Q125.6 144.374 125.958 144.628Q126.315 144.883 126.66 145.154Q127.005 145.426 127.337 145.714Q127.668 146.002 127.985 146.307Q128.301 146.611 128.603 146.93Q128.904 147.249 129.19 147.583Q129.475 147.917 129.744 148.264Q130.012 148.612 130.264 148.972Q130.515 149.332 130.748 149.704Q130.982 150.076 131.197 150.459Q131.411 150.842 131.607 151.235Q131.803 151.628 131.979 152.03Q132.155 152.432 132.312 152.843Q132.468 153.253 132.604 153.67Q132.74 154.088 132.855 154.512Q132.971 154.935 133.065 155.364Q133.16 155.793 133.233 156.226Q133.306 156.659 133.358 157.095Q133.41 157.531 133.44 157.969Q133.471 158.407 133.48 158.846Q133.489 159.285 133.476 159.724Q133.464 160.163 133.43 160.601Q133.395 161.039 133.34 161.474Q133.284 161.91 133.207 162.342Q133.131 162.774 133.033 163.203Q132.935 163.631 132.816 164.053Q132.697 164.476 132.558 164.892Q132.418 165.309 132.258 165.718Q132.099 166.127 131.919 166.528Q131.74 166.928 131.541 167.32Q131.342 167.711 131.124 168.092Q130.906 168.474 130.669 168.844Q130.433 169.214 130.179 169.572Q129.924 169.93 129.653 170.275Q129.381 170.62 129.093 170.951Q128.805 171.283 128.501 171.599Q128.197 171.916 127.878 172.218Q127.559 172.519 127.225 172.805Q126.891 173.09 126.544 173.359Q126.197 173.628 125.837 173.879Q125.477 174.131 125.105 174.364Q124.733 174.598 124.35 174.813Q123.967 175.028 123.574 175.224Q123.182 175.42 122.779 175.596Q122.377 175.772 121.967 175.929Q121.557 176.085 121.139 176.222Q120.722 176.358 120.298 176.473Q119.874 176.589 119.446 176.683Q119.017 176.778 118.584 176.851Q118.151 176.925 117.715 176.977ZM114.102 151.194Q113.904 151.23 113.709 151.276Q113.513 151.322 113.32 151.378Q113.127 151.433 112.937 151.498Q112.747 151.563 112.56 151.638Q112.374 151.712 112.191 151.795Q112.008 151.879 111.83 151.971Q111.651 152.063 111.477 152.164Q111.304 152.265 111.135 152.374Q110.967 152.484 110.804 152.601Q110.641 152.719 110.484 152.844Q110.327 152.969 110.176 153.102Q110.025 153.235 109.881 153.375Q109.737 153.515 109.601 153.663Q109.464 153.81 109.334 153.963Q109.205 154.117 109.083 154.277Q108.961 154.437 108.848 154.602Q108.734 154.768 108.629 154.939Q108.523 155.11 108.426 155.286Q108.329 155.462 108.241 155.642Q108.153 155.823 108.074 156.008Q107.995 156.192 107.925 156.381Q107.855 156.569 107.794 156.76Q107.734 156.952 107.683 157.146Q107.631 157.341 107.59 157.537Q107.548 157.734 107.517 157.932Q107.485 158.13 107.463 158.33Q107.441 158.53 107.429 158.73Q107.417 158.931 107.414 159.132Q107.412 159.333 107.42 159.533Q107.427 159.734 107.445 159.934Q107.462 160.134 107.49 160.334Q107.517 160.533 107.554 160.73Q107.591 160.927 107.638 161.123Q107.685 161.318 107.741 161.511Q107.797 161.704 107.863 161.894Q107.929 162.084 108.004 162.27Q108.079 162.456 108.163 162.639Q108.247 162.821 108.34 163Q108.433 163.178 108.534 163.351Q108.636 163.524 108.746 163.693Q108.856 163.861 108.974 164.023Q109.092 164.186 109.218 164.342Q109.344 164.499 109.478 164.649Q109.611 164.799 109.752 164.942Q109.893 165.086 110.04 165.222Q110.188 165.358 110.342 165.487Q110.496 165.616 110.656 165.737Q110.817 165.858 110.983 165.971Q111.149 166.084 111.32 166.189Q111.492 166.294 111.668 166.39Q111.844 166.486 112.025 166.574Q112.206 166.661 112.391 166.74Q112.576 166.818 112.765 166.887Q112.953 166.957 113.145 167.016Q113.337 167.076 113.532 167.127Q113.726 167.177 113.923 167.218Q114.12 167.258 114.318 167.289Q114.517 167.32 114.716 167.342Q114.916 167.363 115.117 167.374Q115.317 167.386 115.518 167.387Q115.719 167.388 115.92 167.38Q116.121 167.372 116.321 167.353Q116.521 167.335 116.72 167.307Q116.919 167.279 117.116 167.241Q117.312 167.203 117.507 167.156Q117.701 167.109 117.893 167.052Q118.084 166.996 118.273 166.93Q118.462 166.864 118.647 166.788Q118.832 166.713 119.014 166.629Q119.195 166.545 119.372 166.452Q119.549 166.359 119.721 166.258Q119.894 166.156 120.061 166.046Q120.228 165.937 120.389 165.819Q120.551 165.701 120.706 165.575Q120.862 165.45 121.011 165.317Q121.16 165.184 121.303 165.044Q121.446 164.903 121.581 164.756Q121.717 164.609 121.845 164.456Q121.973 164.303 122.093 164.143Q122.214 163.983 122.326 163.818Q122.439 163.653 122.543 163.482Q122.647 163.312 122.743 163.136Q122.839 162.961 122.926 162.781Q123.013 162.601 123.092 162.417Q123.17 162.233 123.239 162.045Q123.308 161.858 123.368 161.667Q123.428 161.476 123.478 161.283Q123.529 161.089 123.57 160.894Q123.61 160.698 123.642 160.5Q123.673 160.303 123.695 160.104Q123.716 159.905 123.728 159.706Q123.74 159.506 123.742 159.306Q123.744 159.106 123.736 158.907Q123.728 158.707 123.711 158.508Q123.693 158.309 123.666 158.111Q123.639 157.913 123.602 157.716Q123.565 157.52 123.519 157.325Q123.472 157.131 123.416 156.939Q123.36 156.747 123.295 156.558Q123.23 156.369 123.155 156.183Q123.081 155.998 122.997 155.816Q122.914 155.634 122.822 155.457Q122.729 155.28 122.629 155.107Q122.528 154.934 122.419 154.767Q122.31 154.599 122.192 154.437Q122.075 154.275 121.95 154.119Q121.825 153.963 121.693 153.814Q121.56 153.664 121.421 153.521Q121.281 153.378 121.134 153.242Q120.988 153.106 120.835 152.977Q120.682 152.848 120.523 152.727Q120.364 152.606 120.199 152.493Q120.034 152.38 119.864 152.275Q119.694 152.17 119.519 152.073Q119.344 151.977 119.164 151.889Q118.985 151.801 118.801 151.722Q118.617 151.643 118.43 151.574Q118.242 151.504 118.052 151.443Q117.861 151.383 117.668 151.331Q117.475 151.28 117.279 151.239Q117.084 151.197 116.886 151.165Q116.689 151.133 116.49 151.111Q116.292 151.088 116.092 151.076Q115.893 151.063 115.693 151.06Q115.493 151.057 115.293 151.064Q115.093 151.071 114.894 151.088Q114.695 151.105 114.497 151.131Q114.299 151.158 114.102 151.194Z"/>
	<path fill="#0058E6" transform="scale(2 2)" d="M165.362 177.13Q164.924 177.175 164.484 177.198Q164.044 177.222 163.604 177.223Q163.164 177.225 162.724 177.205Q162.284 177.186 161.845 177.144Q161.407 177.103 160.971 177.04Q160.535 176.977 160.103 176.893Q159.67 176.809 159.243 176.704Q158.815 176.599 158.393 176.473Q157.971 176.347 157.556 176.2Q157.141 176.053 156.733 175.886Q156.326 175.72 155.927 175.533Q155.528 175.347 155.138 175.141Q154.749 174.935 154.37 174.71Q153.992 174.485 153.625 174.242Q153.257 173.999 152.902 173.738Q152.548 173.477 152.206 173.2Q151.864 172.922 151.537 172.627Q151.209 172.333 150.896 172.023Q150.584 171.713 150.286 171.388Q149.989 171.063 149.708 170.724Q149.427 170.385 149.163 170.032Q148.899 169.68 148.653 169.315Q148.407 168.95 148.179 168.573Q147.951 168.196 147.741 167.809Q147.532 167.421 147.342 167.024Q147.152 166.627 146.981 166.221Q146.811 165.815 146.66 165.401Q146.51 164.987 146.38 164.566Q146.251 164.145 146.142 163.718Q146.033 163.292 145.945 162.86Q145.857 162.429 145.79 161.993Q145.723 161.558 145.678 161.12Q145.633 160.682 145.609 160.242Q145.585 159.802 145.583 159.362Q145.581 158.922 145.601 158.482Q145.62 158.042 145.661 157.603Q145.702 157.165 145.765 156.729Q145.827 156.293 145.911 155.861Q145.995 155.428 146.099 155.001Q146.204 154.573 146.33 154.151Q146.456 153.729 146.602 153.314Q146.748 152.898 146.915 152.491Q147.081 152.083 147.268 151.684Q147.454 151.285 147.659 150.895Q147.865 150.506 148.09 150.127Q148.314 149.748 148.557 149.381Q148.8 149.013 149.06 148.658Q149.321 148.303 149.598 147.961Q149.876 147.62 150.17 147.292Q150.464 146.964 150.774 146.651Q151.083 146.338 151.408 146.04Q151.733 145.743 152.072 145.462Q152.411 145.181 152.763 144.916Q153.115 144.652 153.48 144.406Q153.845 144.159 154.221 143.931Q154.598 143.702 154.985 143.493Q155.372 143.283 155.77 143.092Q156.167 142.902 156.573 142.731Q156.978 142.561 157.392 142.41Q157.806 142.259 158.227 142.129Q158.648 141.999 159.074 141.89Q159.501 141.78 159.932 141.692Q160.364 141.604 160.799 141.537Q161.234 141.47 161.672 141.424Q162.11 141.378 162.551 141.354Q162.991 141.33 163.432 141.328Q163.872 141.325 164.313 141.344Q164.753 141.364 165.192 141.404Q165.631 141.445 166.067 141.508Q166.504 141.57 166.937 141.653Q167.369 141.737 167.798 141.842Q168.226 141.947 168.648 142.072Q169.071 142.198 169.487 142.344Q169.902 142.491 170.311 142.657Q170.719 142.824 171.118 143.01Q171.518 143.196 171.908 143.402Q172.297 143.608 172.677 143.832Q173.056 144.057 173.424 144.3Q173.792 144.543 174.147 144.804Q174.503 145.064 174.845 145.342Q175.187 145.62 175.515 145.915Q175.843 146.209 176.157 146.519Q176.47 146.829 176.768 147.154Q177.065 147.479 177.347 147.819Q177.628 148.158 177.892 148.511Q178.157 148.863 178.404 149.229Q178.65 149.594 178.879 149.971Q179.107 150.348 179.317 150.735Q179.527 151.123 179.717 151.521Q179.908 151.918 180.079 152.325Q180.249 152.731 180.4 153.145Q180.55 153.56 180.68 153.981Q180.81 154.402 180.92 154.829Q181.029 155.256 181.117 155.688Q181.205 156.12 181.272 156.556Q181.339 156.992 181.384 157.43Q181.429 157.868 181.453 158.309Q181.477 158.749 181.479 159.19Q181.481 159.631 181.462 160.071Q181.442 160.511 181.401 160.95Q181.36 161.389 181.297 161.825Q181.234 162.262 181.15 162.695Q181.067 163.127 180.961 163.555Q180.856 163.984 180.73 164.406Q180.604 164.828 180.458 165.244Q180.311 165.66 180.144 166.068Q179.977 166.476 179.791 166.875Q179.604 167.275 179.398 167.664Q179.192 168.054 178.967 168.433Q178.742 168.812 178.499 169.18Q178.256 169.548 177.995 169.903Q177.734 170.258 177.455 170.6Q177.177 170.942 176.883 171.27Q176.588 171.598 176.278 171.911Q175.967 172.224 175.642 172.522Q175.317 172.819 174.977 173.1Q174.638 173.381 174.285 173.646Q173.932 173.91 173.566 174.156Q173.201 174.403 172.824 174.631Q172.446 174.859 172.058 175.069Q171.671 175.278 171.273 175.468Q170.875 175.658 170.469 175.829Q170.062 175.999 169.648 176.149Q169.233 176.3 168.812 176.429Q168.39 176.559 167.963 176.668Q167.536 176.777 167.104 176.864Q166.672 176.952 166.236 177.019Q165.801 177.085 165.362 177.13ZM162.601 151.049Q162.33 151.074 162.061 151.117Q161.792 151.161 161.527 151.221Q161.261 151.282 161 151.36Q160.739 151.439 160.484 151.534Q160.229 151.629 159.981 151.741Q159.733 151.853 159.492 151.981Q159.252 152.109 159.02 152.252Q158.789 152.396 158.568 152.555Q158.346 152.713 158.136 152.886Q157.925 153.059 157.727 153.245Q157.528 153.431 157.342 153.63Q157.156 153.829 156.984 154.04Q156.811 154.251 156.653 154.473Q156.495 154.695 156.352 154.926Q156.209 155.158 156.082 155.399Q155.954 155.639 155.843 155.888Q155.732 156.137 155.637 156.392Q155.542 156.647 155.465 156.908Q155.387 157.169 155.327 157.435Q155.267 157.701 155.224 157.97Q155.182 158.239 155.157 158.51Q155.133 158.781 155.126 159.053Q155.119 159.326 155.13 159.598Q155.142 159.87 155.171 160.14Q155.2 160.411 155.247 160.68Q155.294 160.948 155.359 161.212Q155.423 161.477 155.505 161.737Q155.587 161.996 155.686 162.25Q155.785 162.504 155.9 162.751Q156.016 162.997 156.147 163.236Q156.279 163.474 156.425 163.704Q156.572 163.933 156.734 164.152Q156.896 164.371 157.071 164.579Q157.247 164.787 157.436 164.983Q157.626 165.179 157.827 165.362Q158.029 165.545 158.242 165.714Q158.455 165.883 158.679 166.038Q158.903 166.193 159.137 166.333Q159.371 166.473 159.613 166.597Q159.856 166.721 160.106 166.828Q160.356 166.936 160.613 167.027Q160.869 167.118 161.131 167.192Q161.393 167.266 161.66 167.322Q161.926 167.378 162.196 167.417Q162.465 167.456 162.737 167.477Q163.008 167.497 163.281 167.5Q163.553 167.503 163.825 167.488Q164.097 167.473 164.367 167.44Q164.566 167.416 164.764 167.382Q164.961 167.348 165.157 167.304Q165.353 167.261 165.546 167.208Q165.74 167.155 165.93 167.092Q166.121 167.03 166.308 166.958Q166.496 166.887 166.679 166.806Q166.863 166.726 167.042 166.636Q167.222 166.547 167.397 166.449Q167.572 166.351 167.742 166.245Q167.912 166.138 168.076 166.024Q168.241 165.909 168.4 165.787Q168.559 165.664 168.711 165.534Q168.864 165.404 169.01 165.267Q169.156 165.13 169.296 164.985Q169.435 164.841 169.567 164.69Q169.7 164.54 169.824 164.383Q169.949 164.225 170.066 164.063Q170.183 163.9 170.292 163.731Q170.4 163.563 170.501 163.389Q170.601 163.216 170.693 163.037Q170.785 162.859 170.869 162.677Q170.952 162.494 171.026 162.308Q171.1 162.122 171.165 161.932Q171.23 161.742 171.286 161.55Q171.342 161.357 171.388 161.162Q171.435 160.967 171.471 160.77Q171.508 160.573 171.535 160.374Q171.563 160.175 171.58 159.975Q171.598 159.776 171.605 159.575Q171.613 159.375 171.611 159.174Q171.609 158.974 171.597 158.774Q171.585 158.573 171.564 158.374Q171.543 158.175 171.511 157.977Q171.48 157.778 171.439 157.582Q171.399 157.386 171.348 157.192Q171.298 156.997 171.239 156.806Q171.179 156.614 171.11 156.426Q171.041 156.238 170.963 156.053Q170.885 155.868 170.798 155.687Q170.712 155.507 170.616 155.33Q170.521 155.154 170.417 154.983Q170.313 154.811 170.2 154.645Q170.088 154.479 169.968 154.318Q169.848 154.158 169.72 154.003Q169.592 153.848 169.457 153.7Q169.322 153.552 169.18 153.411Q169.037 153.269 168.888 153.135Q168.74 153.001 168.584 152.874Q168.429 152.747 168.268 152.628Q168.106 152.509 167.94 152.397Q167.773 152.286 167.601 152.183Q167.429 152.08 167.252 151.986Q167.075 151.891 166.893 151.805Q166.712 151.72 166.527 151.643Q166.342 151.566 166.153 151.498Q165.964 151.43 165.772 151.372Q165.581 151.313 165.386 151.264Q165.192 151.215 164.995 151.176Q164.799 151.136 164.6 151.106Q164.402 151.076 164.202 151.056Q164.003 151.035 163.803 151.025Q163.602 151.014 163.402 151.013Q163.201 151.013 163.001 151.021Q162.801 151.03 162.601 151.049Z"/>
	<path fill="#0058E6" transform="scale(2 2)" d="M213.874 177.007Q213.436 177.046 212.996 177.063Q212.557 177.08 212.117 177.076Q211.677 177.071 211.238 177.045Q210.799 177.019 210.362 176.971Q209.925 176.924 209.49 176.855Q209.056 176.786 208.625 176.695Q208.195 176.605 207.769 176.494Q207.344 176.382 206.924 176.25Q206.505 176.118 206.092 175.966Q205.68 175.813 205.275 175.641Q204.87 175.468 204.475 175.276Q204.079 175.083 203.694 174.872Q203.308 174.66 202.933 174.43Q202.558 174.2 202.195 173.952Q201.832 173.703 201.482 173.437Q201.132 173.172 200.795 172.889Q200.458 172.606 200.135 172.307Q199.812 172.008 199.505 171.694Q199.197 171.379 198.906 171.05Q198.614 170.721 198.339 170.378Q198.064 170.035 197.806 169.678Q197.548 169.322 197.307 168.954Q197.067 168.585 196.845 168.205Q196.624 167.825 196.421 167.435Q196.218 167.045 196.034 166.645Q195.851 166.245 195.687 165.837Q195.524 165.429 195.38 165.013Q195.237 164.597 195.114 164.175Q194.992 163.752 194.89 163.325Q194.788 162.897 194.707 162.464Q194.627 162.032 194.567 161.596Q194.508 161.16 194.47 160.722Q194.432 160.284 194.416 159.844Q194.4 159.405 194.405 158.965Q194.41 158.525 194.437 158.086Q194.464 157.647 194.513 157.21Q194.561 156.773 194.631 156.338Q194.701 155.904 194.792 155.474Q194.883 155.043 194.995 154.618Q195.107 154.193 195.24 153.773Q195.373 153.354 195.527 152.942Q195.68 152.53 195.854 152.125Q196.027 151.721 196.22 151.326Q196.413 150.931 196.625 150.546Q196.838 150.16 197.069 149.786Q197.3 149.412 197.549 149.049Q197.798 148.687 198.064 148.337Q198.331 147.987 198.614 147.65Q198.898 147.314 199.197 146.992Q199.497 146.67 199.812 146.363Q200.127 146.056 200.457 145.765Q200.787 145.474 201.13 145.2Q201.474 144.925 201.831 144.668Q202.188 144.41 202.557 144.171Q202.925 143.931 203.306 143.71Q203.686 143.489 204.077 143.287Q204.467 143.085 204.868 142.903Q205.268 142.72 205.676 142.557Q206.085 142.394 206.501 142.252Q206.917 142.109 207.34 141.987Q207.762 141.866 208.191 141.765Q208.619 141.664 209.051 141.584Q209.484 141.504 209.92 141.445Q210.356 141.387 210.794 141.35Q211.231 141.313 211.67 141.298Q212.108 141.282 212.547 141.288Q212.986 141.294 213.424 141.322Q213.861 141.35 214.297 141.398Q214.733 141.448 215.167 141.518Q215.6 141.588 216.029 141.68Q216.458 141.771 216.882 141.883Q217.306 141.996 217.724 142.129Q218.142 142.262 218.553 142.415Q218.965 142.568 219.368 142.742Q219.771 142.915 220.165 143.108Q220.559 143.301 220.943 143.513Q221.327 143.725 221.701 143.955Q222.074 144.186 222.436 144.434Q222.797 144.683 223.146 144.949Q223.495 145.215 223.831 145.497Q224.166 145.78 224.487 146.079Q224.809 146.378 225.115 146.692Q225.421 147.006 225.712 147.335Q226.002 147.664 226.276 148.007Q226.55 148.349 226.807 148.705Q227.064 149.061 227.303 149.428Q227.542 149.796 227.763 150.175Q227.984 150.555 228.186 150.944Q228.388 151.334 228.57 151.733Q228.753 152.132 228.916 152.539Q229.079 152.946 229.221 153.361Q229.364 153.776 229.486 154.198Q229.608 154.619 229.71 155.046Q229.811 155.473 229.892 155.904Q229.972 156.335 230.031 156.77Q230.09 157.205 230.128 157.642Q230.166 158.079 230.182 158.518Q230.198 158.956 230.193 159.395Q230.188 159.833 230.161 160.271Q230.134 160.709 230.086 161.145Q230.038 161.581 229.969 162.015Q229.899 162.448 229.809 162.877Q229.718 163.306 229.606 163.731Q229.495 164.155 229.363 164.573Q229.23 164.992 229.078 165.403Q228.925 165.815 228.753 166.218Q228.58 166.621 228.388 167.016Q228.196 167.41 227.985 167.795Q227.774 168.179 227.544 168.553Q227.314 168.927 227.066 169.289Q226.819 169.651 226.553 170.001Q226.288 170.35 226.006 170.686Q225.724 171.022 225.426 171.344Q225.128 171.666 224.814 171.973Q224.5 172.279 224.172 172.571Q223.844 172.862 223.502 173.136Q223.159 173.411 222.804 173.668Q222.449 173.926 222.082 174.166Q221.714 174.406 221.336 174.627Q220.957 174.849 220.568 175.052Q220.179 175.254 219.78 175.438Q219.382 175.621 218.974 175.785Q218.567 175.948 218.153 176.092Q217.738 176.235 217.317 176.358Q216.896 176.482 216.469 176.584Q216.043 176.686 215.611 176.767Q215.18 176.848 214.746 176.908Q214.311 176.968 213.874 177.007ZM211.923 151.095Q211.723 151.103 211.524 151.122Q211.325 151.14 211.128 151.168Q210.93 151.196 210.734 151.233Q210.537 151.271 210.343 151.318Q210.149 151.365 209.957 151.422Q209.766 151.479 209.577 151.545Q209.389 151.611 209.204 151.686Q209.018 151.761 208.837 151.845Q208.656 151.929 208.479 152.022Q208.302 152.115 208.13 152.217Q207.958 152.319 207.791 152.428Q207.625 152.538 207.463 152.656Q207.302 152.774 207.147 152.9Q206.992 153.026 206.843 153.159Q206.694 153.292 206.552 153.433Q206.409 153.573 206.274 153.72Q206.139 153.867 206.011 154.021Q205.884 154.174 205.764 154.334Q205.644 154.494 205.531 154.659Q205.419 154.825 205.316 154.996Q205.212 155.166 205.117 155.342Q205.021 155.517 204.935 155.698Q204.848 155.878 204.771 156.062Q204.693 156.246 204.625 156.434Q204.556 156.621 204.497 156.812Q204.438 157.003 204.388 157.196Q204.338 157.39 204.298 157.586Q204.258 157.781 204.228 157.979Q204.197 158.176 204.176 158.375Q204.156 158.574 204.145 158.773Q204.134 158.973 204.132 159.173Q204.131 159.372 204.14 159.572Q204.149 159.772 204.167 159.971Q204.186 160.169 204.214 160.367Q204.242 160.565 204.28 160.761Q204.318 160.957 204.365 161.151Q204.413 161.345 204.47 161.537Q204.527 161.728 204.593 161.917Q204.659 162.105 204.735 162.29Q204.81 162.475 204.895 162.656Q204.979 162.837 205.072 163.014Q205.165 163.191 205.267 163.363Q205.369 163.535 205.479 163.701Q205.589 163.868 205.707 164.029Q205.826 164.19 205.952 164.345Q206.078 164.5 206.211 164.649Q206.344 164.798 206.485 164.94Q206.625 165.082 206.773 165.217Q206.92 165.352 207.074 165.479Q207.228 165.607 207.388 165.726Q207.547 165.846 207.713 165.958Q207.879 166.07 208.049 166.173Q208.22 166.277 208.396 166.372Q208.572 166.467 208.752 166.553Q208.932 166.64 209.116 166.717Q209.3 166.794 209.488 166.863Q209.676 166.931 209.867 166.99Q210.058 167.049 210.251 167.098Q210.445 167.147 210.641 167.187Q210.836 167.227 211.034 167.257Q211.231 167.288 211.43 167.308Q211.629 167.329 211.828 167.339Q212.028 167.35 212.228 167.351Q212.427 167.352 212.627 167.343Q212.826 167.334 213.025 167.315Q213.223 167.297 213.421 167.268Q213.618 167.24 213.814 167.202Q214.01 167.164 214.204 167.117Q214.397 167.069 214.589 167.012Q214.78 166.955 214.968 166.889Q215.156 166.822 215.341 166.747Q215.525 166.671 215.706 166.587Q215.887 166.503 216.063 166.409Q216.239 166.316 216.411 166.215Q216.583 166.113 216.749 166.003Q216.915 165.893 217.076 165.775Q217.237 165.657 217.392 165.531Q217.547 165.405 217.695 165.272Q217.844 165.139 217.985 164.999Q218.127 164.858 218.262 164.711Q218.397 164.564 218.524 164.41Q218.651 164.257 218.771 164.097Q218.891 163.938 219.002 163.772Q219.114 163.607 219.217 163.437Q219.321 163.266 219.416 163.091Q219.511 162.915 219.597 162.735Q219.683 162.556 219.761 162.372Q219.838 162.188 219.906 162Q219.974 161.813 220.033 161.622Q220.092 161.432 220.142 161.239Q220.191 161.045 220.231 160.85Q220.271 160.655 220.302 160.457Q220.332 160.26 220.353 160.062Q220.374 159.864 220.384 159.664Q220.395 159.465 220.397 159.266Q220.398 159.066 220.389 158.867Q220.38 158.668 220.362 158.469Q220.344 158.271 220.315 158.073Q220.287 157.876 220.25 157.68Q220.212 157.484 220.164 157.29Q220.117 157.096 220.06 156.905Q220.004 156.714 219.938 156.526Q219.871 156.338 219.796 156.153Q219.721 155.968 219.637 155.787Q219.553 155.607 219.46 155.43Q219.367 155.254 219.265 155.082Q219.164 154.91 219.054 154.744Q218.944 154.577 218.826 154.416Q218.708 154.255 218.583 154.1Q218.457 153.945 218.324 153.797Q218.191 153.648 218.051 153.506Q217.911 153.364 217.764 153.229Q217.617 153.094 217.464 152.967Q217.31 152.839 217.151 152.72Q216.992 152.6 216.826 152.488Q216.661 152.376 216.491 152.272Q216.321 152.169 216.145 152.074Q215.97 151.978 215.79 151.892Q215.611 151.805 215.427 151.728Q215.243 151.65 215.056 151.582Q214.868 151.513 214.678 151.454Q214.487 151.395 214.294 151.345Q214.101 151.295 213.906 151.255Q213.71 151.215 213.513 151.184Q213.316 151.154 213.118 151.133Q212.919 151.112 212.72 151.101Q212.521 151.089 212.322 151.088Q212.122 151.087 211.923 151.095Z"/>
	<path fill="#0058E6" transform="scale(2 2)" d="M373.173 251.887C373.278 246.229 370.685 235.208 376.678 232.276C386.244 231.974 383.278 245.776 383.246 251.887C387.696 251.864 396.648 251.32 400.571 252.083C404.017 252.753 407.059 256.744 404.048 259.84C400.693 263.291 387.785 261.59 383.246 261.59C383.186 266.594 385.122 274.257 381.608 278.372C371.086 285.26 373.149 266.634 373.173 261.59C368.149 261.222 362.847 261.583 357.788 261.59C354.99 259.709 353.158 255.948 355.89 253.139C358.298 250.664 369.035 251.885 373.173 251.887Z"/>
	<path fill="#0058E6" transform="scale(2 2)" d="M242.069 279.78L135.59 279.74C131.996 279.738 123.523 281.55 121.838 277.118C120.414 273.373 122.812 271.351 125.997 270.202C131.753 269.903 137.666 270.195 143.443 270.196L218.679 270.206C223.305 270.201 240.497 269.093 243.997 271.005C247.991 273.186 245.95 278.842 242.069 279.78Z"/>
	<path fill="#0058E6" transform="scale(2 2)" d="M242.069 311.472L140.885 311.484C136.19 311.495 131.451 311.656 126.763 311.457C119.871 311.165 119.645 303.227 125.997 301.942L243.501 301.942C246.553 304.997 247.376 310.138 242.069 311.472Z"/>
</svg>
