<?xml version="1.0" encoding="utf-8" ?>
<svg xmlns="http://www.w3.org/2000/svg" xmlns:xlink="http://www.w3.org/1999/xlink" width="1024" height="1024">
	<path fill="#0058E6" transform="scale(2 2)" d="M191.981 103.108C192.068 93.8781 189.593 82.1309 201.799 80.7728L215.937 80.7404C236.842 80.7268 234.346 85.5283 234.252 103.108C246.451 104.601 263.609 112.814 273.69 119.753C279.076 115.087 285.027 105.995 293.357 110.165C295.883 111.43 310.262 125.75 312.418 128.585C319.208 137.513 307.465 143.498 304.242 149.609C306.69 155.056 311.496 161.387 314.546 167.887C317.978 164.982 339.003 147.859 341.838 146.72C344.569 145.623 382.279 146.288 388.345 146.251C396.559 117.979 438.921 134.15 425.943 160.352C417.841 176.708 394.438 174.757 388.345 155.694L345.972 155.694C337.929 160.649 325.763 171.173 318.249 177.289C319.949 182.154 321.29 187.1 322.623 192.074C344.583 191.952 340.224 203.235 340.056 221.434C339.934 234.522 331.303 234.105 320.783 234.008C317.509 250.904 311.658 257.919 304.242 271.543C313.345 285.46 321.661 282.094 305.575 298.369C312.578 305.871 336.095 326.039 340.01 333.138C342.786 330.542 350.171 321.161 354.09 321.261C362.337 324.93 396.328 355.484 404.457 362.507C417.676 373.928 429.936 380.13 428.119 400.122C424.288 422.926 398.117 434.292 379.195 419.705C373.586 415.382 365.407 404.585 360.332 398.668L325.109 357.566C319.026 350.369 327.938 344.465 334.314 339.528C323.615 332.284 309.494 314.882 298.537 305.528C287.407 317.7 283.505 309.767 274.022 302.185L273.69 301.922C269.826 303.299 266.354 305.93 262.66 307.727C253.641 312.114 244.087 315.392 234.252 317.357C234.375 338.61 232.276 337.813 213.126 337.778C195.237 337.746 188.935 338.803 191.981 317.357C179.052 314.199 163.022 308.968 152.318 300.986C134.625 318.886 134.595 313.755 118.249 297.407C105.235 284.392 111.357 282.783 121.685 271.543C114.034 259.951 107.871 247.741 105.148 234.008C96.2353 234.033 85.401 235.056 84.6806 223.151C84.4036 218.574 84.1069 202.94 85.0654 199.078C87.2658 190.212 97.2062 191.66 104.233 191.437C107.045 180.783 108.296 173.993 113.181 163.8C115.438 159.09 118.477 154.741 120.584 149.99L120.75 149.609C116.598 144.083 106.873 137.296 112.776 129.383C114.976 126.434 129.244 112.195 132.07 110.501C140.128 105.668 146.331 114.222 151.95 118.533L152.318 118.813C165.843 111.946 175.587 104.785 191.981 103.108ZM201.799 90.424C201.873 110.618 206.061 110.104 189.338 113.386C179.138 115.387 168.977 119.744 160.194 125.256C143.978 135.433 151.537 127.884 137.656 118.813C133.962 120.828 123.415 131.414 120.75 135.117L120.988 135.443C126.751 143.254 136.027 145.319 130.028 154.189C122.629 165.127 116.802 177.318 114.175 190.318C111.025 205.908 111.303 200.099 93.9944 200.776L93.9944 224.486C113.146 225.25 111.045 219.341 115.4 235.862C117.619 244.28 120.724 251.774 125.197 259.226C135.177 275.852 135.956 270.412 120.75 286.54C125.444 291.07 132.73 299 137.656 302.508C139.863 299.787 148.232 290.522 151.417 290.233C154.473 289.956 158.965 293.761 161.415 295.23C170.092 300.433 179.058 304.255 188.895 306.655C204.965 310.575 201.002 308.696 200.94 328.355C208.726 328.36 216.556 328.549 224.335 328.355C224.265 302.653 222.165 311.391 241.782 305.57C248.559 303.56 254.762 300.689 261.029 297.472C276.956 289.293 272.984 287.491 287.626 301.922C293.108 296.884 298.251 290.93 304.242 286.54L303.931 286.172C290.956 270.99 289.407 277.847 298.949 262.122C303.41 254.771 307.309 246.785 309.893 238.575C315.52 220.689 310.724 225.237 330.465 224.486L330.465 201.76C307.488 201.922 316.677 202.015 310.605 184.226C306.763 186.55 303.701 189.879 299.741 192.074C297.621 194.419 294.92 196.039 292.764 198.322C292.371 205.046 293.23 211.43 292.567 218.379C290.742 237.515 280.164 256.451 265.867 269.088C212.557 316.212 127.895 275.126 132.929 205.375C138.993 121.353 253.042 104.092 286.313 178.789C287.616 181.713 288.689 184.877 290.192 187.694C295.739 183.289 301.49 179.004 306.847 174.375C304.474 169.191 301.974 164.029 298.969 159.175C289.234 143.45 291.165 148.789 304.242 134.329C300.9 129.573 293.574 123.135 289.196 118.813C280.648 125.423 278.811 134.107 268.575 127.657C259.406 121.879 250.347 117.456 239.915 114.396C221.134 108.887 224.907 113.432 224.958 90.424C217.254 90.4185 209.497 90.2143 201.799 90.424ZM212.874 140.173Q211.151 140.169 209.43 140.249Q207.708 140.329 205.993 140.494Q204.278 140.659 202.573 140.908Q200.868 141.157 199.177 141.49Q197.486 141.823 195.814 142.238Q194.142 142.653 192.492 143.151Q190.842 143.648 189.219 144.226Q187.595 144.804 186.002 145.461Q184.409 146.118 182.851 146.852Q181.292 147.587 179.771 148.397Q178.251 149.208 176.772 150.092Q175.293 150.976 173.859 151.932Q172.425 152.888 171.041 153.914Q169.656 154.939 168.323 156.031Q166.99 157.124 165.713 158.28Q164.435 159.437 163.216 160.655Q161.998 161.873 160.84 163.149Q159.683 164.425 158.589 165.757Q157.496 167.089 156.469 168.473Q155.443 169.857 154.486 171.29Q153.529 172.723 152.643 174.201Q151.758 175.68 150.946 177.2Q150.135 178.72 149.399 180.278Q148.663 181.836 148.005 183.428Q147.347 185.021 146.767 186.644Q146.188 188.267 145.69 189.916Q145.191 191.566 144.774 193.238Q144.358 194.91 144.024 196.6Q143.69 198.291 143.439 199.995Q143.189 201.7 143.022 203.415Q142.856 205.13 142.775 206.852Q142.693 208.573 142.696 210.296Q142.699 212.019 142.787 213.74Q142.875 215.461 143.047 217.175Q143.22 218.89 143.477 220.594Q143.733 222.298 144.073 223.987Q144.414 225.676 144.836 227.347Q145.259 229.017 145.764 230.665Q146.268 232.312 146.853 233.933Q147.438 235.554 148.103 237.144Q148.767 238.734 149.508 240.289Q150.25 241.845 151.067 243.362Q151.884 244.879 152.775 246.354Q153.665 247.829 154.628 249.258Q155.59 250.688 156.621 252.068Q157.653 253.448 158.751 254.776Q159.849 256.104 161.011 257.376Q162.173 258.649 163.397 259.862Q164.62 261.076 165.902 262.227Q167.183 263.379 168.52 264.467Q169.857 265.554 171.245 266.574Q172.634 267.595 174.071 268.546Q175.508 269.496 176.99 270.375Q178.472 271.254 179.996 272.059Q181.519 272.864 183.081 273.593Q184.642 274.322 186.238 274.973Q187.833 275.624 189.458 276.196Q191.084 276.768 192.735 277.259Q194.387 277.751 196.061 278.16Q197.735 278.569 199.426 278.896Q201.118 279.223 202.824 279.465Q204.53 279.708 206.246 279.867Q207.962 280.026 209.683 280.1Q211.405 280.174 213.128 280.163Q214.841 280.152 216.552 280.058Q218.263 279.963 219.967 279.785Q221.671 279.607 223.365 279.346Q225.058 279.085 226.737 278.741Q228.416 278.397 230.075 277.971Q231.735 277.546 233.372 277.04Q235.009 276.533 236.619 275.948Q238.229 275.362 239.809 274.698Q241.389 274.034 242.934 273.294Q244.479 272.554 245.986 271.739Q247.494 270.924 248.959 270.036Q250.425 269.148 251.845 268.189Q253.265 267.231 254.637 266.204Q256.009 265.177 257.329 264.085Q258.648 262.992 259.913 261.836Q261.178 260.68 262.385 259.464Q263.591 258.247 264.737 256.973Q265.883 255.699 266.965 254.37Q268.047 253.042 269.063 251.662Q270.078 250.282 271.025 248.854Q271.972 247.426 272.848 245.953Q273.724 244.481 274.527 242.967Q275.33 241.453 276.058 239.902Q276.786 238.351 277.437 236.766Q278.088 235.181 278.661 233.566Q279.234 231.951 279.727 230.31Q280.22 228.67 280.632 227.006Q281.044 225.343 281.374 223.662Q281.705 221.981 281.952 220.285Q282.2 218.59 282.364 216.884Q282.529 215.179 282.609 213.467Q282.69 211.755 282.687 210.042Q282.684 208.329 282.597 206.617Q282.51 204.906 282.34 203.201Q282.169 201.496 281.915 199.802Q281.661 198.107 281.325 196.427Q280.989 194.747 280.57 193.085Q280.152 191.423 279.653 189.784Q279.154 188.145 278.576 186.532Q277.997 184.919 277.34 183.337Q276.683 181.754 275.95 180.206Q275.216 178.657 274.408 177.146Q273.6 175.636 272.718 174.166Q271.837 172.697 270.885 171.272Q269.933 169.848 268.912 168.471Q267.891 167.095 266.804 165.77Q265.718 164.446 264.567 163.176Q263.417 161.906 262.206 160.694Q260.995 159.482 259.726 158.33Q258.457 157.179 257.133 156.091Q255.809 155.003 254.434 153.981Q253.058 152.959 251.634 152.006Q250.211 151.053 248.742 150.17Q247.273 149.288 245.763 148.478Q244.253 147.669 242.705 146.934Q241.157 146.199 239.575 145.541Q237.993 144.883 236.38 144.303Q234.768 143.723 233.129 143.223Q231.491 142.723 229.829 142.303Q228.168 141.884 226.488 141.546Q224.808 141.208 223.114 140.953Q221.419 140.698 219.715 140.526Q218.01 140.354 216.299 140.266Q214.587 140.177 212.874 140.173ZM406.799 140.878Q406.545 140.907 406.292 140.949Q406.04 140.99 405.79 141.044Q405.54 141.098 405.293 141.164Q405.046 141.23 404.802 141.308Q404.559 141.387 404.319 141.476Q404.08 141.566 403.845 141.668Q403.61 141.77 403.381 141.883Q403.151 141.995 402.927 142.12Q402.704 142.244 402.486 142.378Q402.269 142.513 402.059 142.659Q401.848 142.804 401.645 142.96Q401.442 143.115 401.247 143.28Q401.051 143.446 400.864 143.62Q400.677 143.795 400.499 143.978Q400.321 144.162 400.152 144.354Q399.983 144.546 399.824 144.746Q399.665 144.946 399.515 145.154Q399.366 145.362 399.227 145.577Q399.088 145.791 398.96 146.013Q398.832 146.234 398.714 146.461Q398.597 146.689 398.491 146.921Q398.385 147.154 398.291 147.392Q398.196 147.63 398.113 147.872Q398.031 148.114 397.96 148.36Q397.889 148.605 397.831 148.854Q397.772 149.103 397.726 149.355Q397.679 149.607 397.645 149.86Q397.611 150.114 397.59 150.368Q397.568 150.623 397.559 150.879Q397.55 151.135 397.554 151.39Q397.557 151.646 397.573 151.902Q397.589 152.157 397.618 152.411Q397.647 152.665 397.688 152.918Q397.728 153.17 397.782 153.42Q397.835 153.671 397.901 153.918Q397.966 154.165 398.044 154.409Q398.121 154.653 398.21 154.892Q398.3 155.132 398.401 155.367Q398.502 155.602 398.614 155.832Q398.727 156.062 398.85 156.286Q398.974 156.51 399.108 156.727Q399.242 156.945 399.387 157.156Q399.532 157.367 399.687 157.57Q399.842 157.774 400.007 157.969Q400.172 158.165 400.346 158.352Q400.52 158.54 400.703 158.718Q400.886 158.897 401.078 159.066Q401.27 159.236 401.469 159.396Q401.669 159.555 401.877 159.705Q402.084 159.855 402.298 159.994Q402.513 160.134 402.734 160.263Q402.955 160.392 403.182 160.509Q403.409 160.627 403.641 160.734Q403.874 160.84 404.111 160.935Q404.349 161.03 404.591 161.114Q404.833 161.197 405.078 161.268Q405.324 161.34 405.573 161.399Q405.822 161.458 406.073 161.505Q406.325 161.552 406.578 161.587Q406.832 161.621 407.086 161.643Q407.341 161.665 407.597 161.675Q407.852 161.685 408.108 161.682Q408.364 161.679 408.619 161.663Q408.875 161.648 409.129 161.62Q409.384 161.592 409.637 161.551Q409.891 161.511 410.142 161.458Q410.393 161.405 410.641 161.34Q410.889 161.275 411.134 161.197Q411.379 161.12 411.619 161.031Q411.86 160.942 412.096 160.841Q412.332 160.74 412.562 160.627Q412.793 160.515 413.018 160.391Q413.242 160.267 413.461 160.133Q413.679 159.998 413.891 159.853Q414.103 159.708 414.307 159.553Q414.511 159.397 414.708 159.232Q414.904 159.067 415.092 158.892Q415.28 158.718 415.459 158.534Q415.638 158.35 415.808 158.158Q415.978 157.966 416.138 157.766Q416.299 157.565 416.449 157.357Q416.599 157.149 416.739 156.934Q416.879 156.719 417.008 156.497Q417.137 156.275 417.255 156.048Q417.373 155.82 417.48 155.586Q417.587 155.353 417.682 155.115Q417.777 154.877 417.86 154.634Q417.943 154.391 418.015 154.145Q418.086 153.898 418.145 153.648Q418.204 153.399 418.251 153.146Q418.298 152.894 418.332 152.64Q418.366 152.386 418.388 152.13Q418.41 151.874 418.419 151.618Q418.428 151.361 418.424 151.105Q418.421 150.848 418.405 150.592Q418.389 150.336 418.36 150.081Q418.331 149.826 418.29 149.573Q418.249 149.319 418.196 149.069Q418.142 148.818 418.076 148.57Q418.01 148.322 417.932 148.077Q417.855 147.833 417.765 147.592Q417.675 147.352 417.573 147.116Q417.472 146.881 417.359 146.65Q417.246 146.42 417.122 146.195Q416.997 145.971 416.862 145.753Q416.727 145.535 416.582 145.323Q416.436 145.112 416.28 144.908Q416.125 144.704 415.959 144.508Q415.793 144.312 415.618 144.125Q415.443 143.937 415.259 143.759Q415.075 143.58 414.882 143.41Q414.69 143.241 414.489 143.081Q414.288 142.921 414.08 142.771Q413.871 142.622 413.656 142.482Q413.44 142.343 413.218 142.215Q412.996 142.086 412.768 141.968Q412.54 141.851 412.306 141.745Q412.073 141.639 411.834 141.544Q411.596 141.45 411.353 141.367Q411.11 141.284 410.863 141.214Q410.617 141.143 410.367 141.084Q410.117 141.026 409.865 140.98Q409.612 140.934 409.358 140.9Q409.103 140.866 408.848 140.845Q408.592 140.824 408.336 140.816Q408.079 140.807 407.823 140.811Q407.566 140.815 407.31 140.832Q407.054 140.849 406.799 140.878ZM353.996 333.138C347.708 340.021 340.907 346.507 334.314 353.102C337.261 357.429 341.18 361.312 344.574 365.305L377.711 403.684C384.488 411.493 388.41 416.508 399.823 416.232C411.185 414.523 420.31 405.17 418.371 393.179C416.694 382.81 407.74 378.09 400.332 371.679C394.459 366.597 359.629 335.646 353.996 333.138Z"/>
	<path fill="#0058E6" transform="scale(2 2)" d="M179.36 230.014C173.996 230.053 160.35 225.353 166.22 217.867C168.905 214.441 186.02 226.295 183.547 215.834C182.694 212.229 173.728 211.949 170.782 210.15C161.445 204.445 164.152 189.334 177.106 186.794C185.371 185.968 196.999 192.8 189.764 197.997C186.524 200.324 174.879 191.693 174.718 199.624C174.641 203.371 182.531 203.888 185.126 204.866C198.83 210.032 193.737 230.23 179.36 230.014Z"/>
	<path fill="#0058E6" transform="scale(2 2)" d="M208.986 220.26C212.082 220.285 217.304 219.435 219.917 221.225C221.94 222.61 222.666 225.902 221.108 227.88C218.12 231.675 199.878 230.612 197.748 228.842C194.721 226.326 196.337 210.214 196.344 206.215C196.366 195.298 192.718 187.428 205.727 186.794C209.507 186.756 217.922 185.898 220.796 188.187C222.728 189.725 222.823 192.914 221.135 194.674C218.463 197.459 209.565 196.406 205.727 196.421C205.974 198.693 205.945 200.707 205.727 202.974C209.338 202.998 216.692 201.877 219.42 204.332C221.116 205.857 221.23 209.083 219.626 210.715C217.102 213.282 209.257 212.298 205.727 212.265L205.727 220.26L208.986 220.26Z"/>
	<path fill="#0058E6" transform="scale(2 2)" d="M247.631 229.891Q247.112 229.952 246.59 229.988Q246.068 230.024 245.546 230.034Q245.023 230.044 244.5 230.028Q243.978 230.013 243.456 229.972Q242.935 229.93 242.417 229.864Q241.898 229.797 241.383 229.705Q240.869 229.613 240.359 229.496Q239.849 229.379 239.346 229.238Q238.843 229.096 238.347 228.929Q237.851 228.763 237.364 228.573Q236.878 228.382 236.4 228.168Q235.923 227.954 235.457 227.717Q234.991 227.48 234.538 227.22Q234.084 226.961 233.643 226.679Q233.203 226.397 232.776 226.094Q232.35 225.792 231.939 225.468Q231.528 225.145 231.134 224.802Q230.739 224.459 230.362 224.097Q229.985 223.735 229.626 223.355Q229.267 222.975 228.927 222.577Q228.587 222.18 228.266 221.767Q227.946 221.353 227.647 220.925Q227.347 220.496 227.069 220.054Q226.791 219.611 226.535 219.155Q226.279 218.699 226.045 218.232Q225.811 217.764 225.601 217.285Q225.391 216.806 225.204 216.318Q225.017 215.83 224.855 215.333Q224.693 214.836 224.555 214.331Q224.417 213.827 224.304 213.316Q224.19 212.806 224.102 212.29Q224.015 211.775 223.952 211.256Q223.889 210.737 223.852 210.215Q223.815 209.694 223.804 209.171Q223.792 208.648 223.807 208.126Q223.821 207.603 223.86 207.082Q223.9 206.56 223.965 206.041Q224.031 205.523 224.121 205.008Q224.212 204.493 224.327 203.983Q224.443 203.473 224.584 202.969Q224.724 202.466 224.889 201.969Q225.054 201.473 225.243 200.986Q225.432 200.498 225.645 200.021Q225.858 199.543 226.094 199.077Q226.33 198.61 226.588 198.155Q226.847 197.701 227.127 197.26Q227.408 196.818 227.709 196.391Q228.011 195.964 228.333 195.553Q228.656 195.141 228.998 194.745Q229.34 194.35 229.701 193.972Q230.062 193.594 230.441 193.233Q230.82 192.873 231.216 192.532Q231.613 192.191 232.025 191.87Q232.438 191.549 232.866 191.248Q233.293 190.947 233.735 190.668Q234.177 190.389 234.633 190.131Q235.088 189.874 235.555 189.639Q236.022 189.404 236.5 189.193Q236.978 188.981 237.466 188.793Q237.954 188.605 238.451 188.442Q238.947 188.278 239.451 188.139Q239.955 187.999 240.465 187.885Q240.976 187.77 241.491 187.681Q242.006 187.592 242.525 187.528Q243.046 187.464 243.569 187.425Q244.092 187.387 244.617 187.374Q245.141 187.361 245.665 187.374Q246.19 187.388 246.713 187.426Q247.236 187.465 247.757 187.53Q248.278 187.594 248.794 187.684Q249.311 187.774 249.823 187.889Q250.335 188.005 250.84 188.145Q251.346 188.285 251.844 188.45Q252.342 188.615 252.831 188.805Q253.32 188.994 253.8 189.207Q254.279 189.42 254.747 189.656Q255.216 189.893 255.672 190.152Q256.128 190.411 256.571 190.692Q257.014 190.974 257.442 191.276Q257.871 191.579 258.284 191.902Q258.697 192.226 259.094 192.569Q259.491 192.912 259.87 193.274Q260.249 193.637 260.611 194.017Q260.972 194.398 261.314 194.796Q261.656 195.194 261.978 195.608Q262.3 196.022 262.601 196.451Q262.902 196.881 263.182 197.325Q263.462 197.768 263.719 198.225Q263.977 198.682 264.212 199.152Q264.447 199.621 264.658 200.101Q264.87 200.581 265.057 201.071Q265.245 201.561 265.409 202.059Q265.572 202.558 265.711 203.064Q265.849 203.57 265.963 204.082Q266.077 204.594 266.165 205.111Q266.253 205.628 266.316 206.149Q266.379 206.67 266.416 207.193Q266.453 207.717 266.464 208.241Q266.476 208.766 266.461 209.29Q266.447 209.814 266.407 210.338Q266.366 210.861 266.3 211.381Q266.235 211.902 266.143 212.418Q266.052 212.935 265.935 213.446Q265.818 213.958 265.677 214.463Q265.535 214.968 265.369 215.466Q265.203 215.963 265.012 216.452Q264.821 216.941 264.607 217.42Q264.393 217.899 264.155 218.366Q263.917 218.834 263.657 219.29Q263.397 219.745 263.114 220.187Q262.832 220.629 262.528 221.057Q262.224 221.485 261.9 221.897Q261.575 222.309 261.231 222.705Q260.887 223.101 260.523 223.479Q260.16 223.858 259.778 224.218Q259.397 224.578 258.998 224.919Q258.599 225.26 258.184 225.581Q257.769 225.902 257.339 226.202Q256.909 226.502 256.464 226.781Q256.02 227.059 255.562 227.316Q255.104 227.572 254.634 227.806Q254.165 228.039 253.684 228.249Q253.203 228.46 252.713 228.646Q252.222 228.832 251.723 228.995Q251.224 229.157 250.718 229.294Q250.212 229.431 249.699 229.543Q249.187 229.656 248.669 229.743Q248.152 229.83 247.631 229.891ZM242.631 197.294Q242.353 197.354 242.079 197.428Q241.804 197.502 241.533 197.589Q241.263 197.676 240.997 197.776Q240.731 197.876 240.47 197.989Q240.209 198.102 239.954 198.228Q239.699 198.353 239.45 198.491Q239.202 198.629 238.96 198.779Q238.719 198.929 238.485 199.09Q238.251 199.252 238.025 199.425Q237.799 199.597 237.582 199.781Q237.365 199.964 237.157 200.158Q236.949 200.352 236.751 200.556Q236.553 200.76 236.365 200.973Q236.177 201.186 236 201.409Q235.822 201.631 235.656 201.861Q235.49 202.092 235.335 202.33Q235.18 202.569 235.037 202.814Q234.894 203.06 234.763 203.312Q234.632 203.565 234.514 203.823Q234.396 204.082 234.29 204.346Q234.184 204.61 234.092 204.878Q233.999 205.147 233.92 205.42Q233.84 205.693 233.774 205.97Q233.708 206.246 233.656 206.526Q233.604 206.805 233.565 207.087Q233.526 207.368 233.501 207.651Q233.476 207.935 233.465 208.219Q233.454 208.503 233.457 208.787Q233.46 209.071 233.477 209.355Q233.493 209.639 233.524 209.921Q233.554 210.204 233.599 210.485Q233.643 210.766 233.701 211.044Q233.759 211.322 233.83 211.597Q233.902 211.873 233.987 212.144Q234.071 212.415 234.169 212.682Q234.267 212.949 234.378 213.211Q234.489 213.472 234.612 213.728Q234.736 213.984 234.872 214.234Q235.008 214.484 235.155 214.727Q235.303 214.969 235.463 215.205Q235.622 215.44 235.793 215.667Q235.964 215.894 236.146 216.113Q236.327 216.332 236.519 216.541Q236.712 216.75 236.914 216.95Q237.116 217.15 237.328 217.34Q237.539 217.53 237.76 217.709Q237.981 217.888 238.21 218.056Q238.439 218.224 238.676 218.381Q238.913 218.538 239.158 218.683Q239.402 218.828 239.653 218.961Q239.904 219.094 240.162 219.214Q240.419 219.335 240.682 219.443Q240.945 219.551 241.213 219.646Q241.481 219.74 241.754 219.822Q242.026 219.904 242.302 219.972Q242.578 220.04 242.857 220.095Q243.136 220.15 243.417 220.191Q243.698 220.232 243.981 220.259Q244.264 220.286 244.548 220.3Q244.832 220.313 245.116 220.313Q245.4 220.312 245.684 220.298Q245.968 220.284 246.251 220.256Q246.534 220.227 246.815 220.186Q247.096 220.144 247.375 220.088Q247.657 220.032 247.935 219.962Q248.214 219.892 248.489 219.808Q248.764 219.724 249.034 219.627Q249.305 219.53 249.57 219.42Q249.835 219.309 250.094 219.186Q250.354 219.063 250.607 218.927Q250.86 218.791 251.106 218.643Q251.352 218.494 251.591 218.334Q251.829 218.174 252.06 218.002Q252.29 217.83 252.511 217.647Q252.733 217.464 252.945 217.271Q253.157 217.077 253.36 216.873Q253.562 216.669 253.754 216.456Q253.946 216.242 254.128 216.019Q254.309 215.796 254.479 215.565Q254.649 215.333 254.808 215.093Q254.966 214.854 255.113 214.607Q255.259 214.36 255.393 214.105Q255.527 213.851 255.649 213.591Q255.77 213.331 255.879 213.065Q255.987 212.798 256.082 212.527Q256.177 212.256 256.259 211.981Q256.341 211.705 256.409 211.426Q256.477 211.147 256.531 210.865Q256.585 210.583 256.625 210.298Q256.665 210.014 256.691 209.728Q256.717 209.442 256.729 209.155Q256.741 208.868 256.739 208.58Q256.737 208.293 256.72 208.006Q256.704 207.719 256.673 207.434Q256.643 207.148 256.598 206.864Q256.554 206.58 256.495 206.299Q256.436 206.018 256.364 205.74Q256.292 205.462 256.206 205.188Q256.12 204.913 256.02 204.644Q255.921 204.374 255.809 204.11Q255.696 203.846 255.57 203.587Q255.445 203.329 255.307 203.077Q255.169 202.825 255.019 202.58Q254.868 202.335 254.706 202.098Q254.544 201.861 254.37 201.632Q254.196 201.403 254.012 201.183Q253.827 200.963 253.631 200.753Q253.436 200.542 253.23 200.341Q253.025 200.141 252.81 199.95Q252.594 199.76 252.37 199.581Q252.146 199.401 251.913 199.233Q251.68 199.065 251.439 198.908Q251.198 198.752 250.95 198.607Q250.701 198.463 250.446 198.331Q250.191 198.199 249.93 198.08Q249.668 197.961 249.401 197.854Q249.134 197.748 248.862 197.655Q248.591 197.562 248.314 197.483Q248.038 197.404 247.759 197.338Q247.479 197.272 247.196 197.22Q246.914 197.169 246.629 197.131Q246.344 197.093 246.058 197.069Q245.772 197.046 245.484 197.036Q245.197 197.027 244.91 197.031Q244.623 197.036 244.336 197.055Q244.049 197.073 243.764 197.106Q243.479 197.139 243.195 197.186Q242.912 197.233 242.631 197.294Z"/>
</svg>
